<?xml version="1.0" encoding="UTF-8" standalone="no"?>
<!-- Created with Inkscape (http://www.inkscape.org/) -->

<svg
   xmlns:dc="http://purl.org/dc/elements/1.1/"
   xmlns:cc="http://creativecommons.org/ns#"
   xmlns:rdf="http://www.w3.org/1999/02/22-rdf-syntax-ns#"
   xmlns:svg="http://www.w3.org/2000/svg"
   xmlns="http://www.w3.org/2000/svg"
   xmlns:sodipodi="http://sodipodi.sourceforge.net/DTD/sodipodi-0.dtd"
   xmlns:inkscape="http://www.inkscape.org/namespaces/inkscape"
   width="48"
   height="48"
   id="svg2"
   version="1.1"
   inkscape:version="0.48.4 r9939"
   inkscape:export-filename="/home/sylvie/dcc/DESSINS PEINTURES DIVERS/Logos/Logo-open-tweet-bar/export-48px3.png"
   inkscape:export-xdpi="90"
   inkscape:export-ydpi="90"
   sodipodi:docname="Nouveau document 1">
  <defs
     id="defs4" />
  <sodipodi:namedview
     id="base"
     pagecolor="#ffffff"
     bordercolor="#666666"
     borderopacity="1.0"
     inkscape:pageopacity="0.0"
     inkscape:pageshadow="2"
     inkscape:zoom="15.839192"
     inkscape:cx="25.732987"
     inkscape:cy="24.789061"
     inkscape:document-units="px"
     inkscape:current-layer="layer2"
     showgrid="false"
     showguides="false"
     inkscape:guide-bbox="true"
     inkscape:window-width="1920"
     inkscape:window-height="1004"
     inkscape:window-x="0"
     inkscape:window-y="24"
     inkscape:window-maximized="1">
    <sodipodi:guide
       orientation="0,1"
       position="14.464286,48.125"
       id="guide3128" />
    <sodipodi:guide
       orientation="1,0"
       position="48.035714,19.732143"
       id="guide3130" />
    <sodipodi:guide
       orientation="1,0"
       position="0,23.928571"
       id="guide3132" />
    <sodipodi:guide
       orientation="0,1"
       position="13.482143,0"
       id="guide3134" />
  </sodipodi:namedview>
  <metadata
     id="metadata7">
    <rdf:RDF>
      <cc:Work
         rdf:about="">
        <dc:format>image/svg+xml</dc:format>
        <dc:type
           rdf:resource="http://purl.org/dc/dcmitype/StillImage" />
        <dc:title></dc:title>
      </cc:Work>
    </rdf:RDF>
  </metadata>
  <g
     inkscape:label="Calque 1"
     inkscape:groupmode="layer"
     id="layer1"
     transform="translate(0,-1004.3622)"
     style="display:inline"
     sodipodi:insensitive="true" />
  <g
     inkscape:groupmode="layer"
     id="layer2"
     inkscape:label="cadre noir"
     style="display:inline">
    <path
       inkscape:connector-curvature="0"
       id="path3114"
       d="M 0.27577656,44.45859 C 0,45.424908 0,41.180295 0.21705467,43.901369 0.99177783,44.203642 1.0921672,44.166232 1.355317,43.477184 1.487387,43.131367 2.0029392,42.176983 2.5009905,41.356331 2.9990419,40.53568 3.5342755,39.613922 3.6903981,39.307963 4.1296594,38.44712 5.7295361,36.0253 6.2127804,35.489677 c 0.2384548,-0.264293 1.0906704,-1.141074 1.893813,-1.948403 0.8031426,-0.807328 1.7189602,-1.748862 2.0351496,-2.092301 0.556683,-0.604658 0.89326,-0.821639 2.067484,-1.332841 1.100943,-0.479313 1.307791,-0.916959 0.71402,-1.510722 C 12.685118,28.367277 12.36817,28.250734 11.775901,28.183493 10.585335,28.048328 9.1737579,27.755331 8.831996,27.572437 8.5377996,27.414979 8.1736764,26.726418 7.8262209,25.670509 7.5807151,24.924421 7.083572,24.205182 6.5834276,23.872507 5.8839134,23.407221 5.5343982,22.421585 5.3433129,20.375386 5.242637,19.297324 5.1648928,19.026613 4.8297925,18.587272 4.4596265,18.101962 4.3971664,18.073806 3.8320016,18.137508 3.357427,18.191 3.0547654,18.357092 2.4100915,18.917813 0.63883446,20.527582 0.30728132,20.500142 0,19.898366 0.8529263,19.762049 1.4428881,19.254276 2.0569479,18.663616 2.7255492,18.020492 3.7163198,17.499319 4.061845,17.608985 4.2918024,17.68197 4.3101016,17.587587 4.2832773,16.46692 4.2640825,15.664981 4.1769148,15.096158 4.0295482,14.811182 3.9060798,14.57242 3.7756161,14.197636 3.7396283,13.978327 3.4908544,12.4623 3.4966718,12.328918 3.8547983,11.337603 4.298069,10.110601 4.2990022,9.8766938 3.864881,8.808332 3.6736566,8.3377252 3.5172003,7.7958856 3.5172003,7.6042426 3.5172003,7.3076848 3.4246393,7.2324939 2.8955804,7.0992752 2.5536892,7.0131852 2.2018224,6.8558277 2.1136547,6.7495918 2.0254856,6.6433544 1.9062937,6.5564342 1.8487845,6.5564342 c -0.057511,0 -0.3471147,-0.224293 -0.6435654,-0.4984282 -2.5778668,-1.3943914 -1.08951719,-1.8370544 0.2954327,-0.3360056 0.4153116,0.4691799 1.2707301,0.9735061 1.651225,0.9735061 0.3842943,0 0.5043958,-0.2264486 0.5043958,-0.9510307 0,-0.7964699 -0.2199707,-1.3816528 -0.9008298,-2.3964551 C 2.4095116,2.8324185 2.1264772,2.2707638 2.1264772,2.0998982 c 0,-0.2919434 0.042815,-0.3055947 0.7104383,-0.2265251 0.3945816,0.046732 1.0334074,0.2664138 1.4368743,0.4941155 0.7395684,0.4173866 1.096873,0.5472816 5.0149113,1.8231226 2.1840079,0.7111838 3.4824119,1.2706898 4.3112419,1.8577891 1.079414,0.7646015 3.784203,3.2789329 4.510479,4.1928757 0.945658,1.190011 2.47059,4.000019 2.981439,5.493931 0.196171,0.573673 0.399356,1.409285 0.451524,1.856915 0.08598,0.737744 0.144663,0.849958 0.627371,1.19963 0.292887,0.212166 0.808164,0.455164 1.145059,0.539995 0.40862,0.102892 0.757089,0.318875 1.04675,0.64878 l 0.434213,0.494541 0.845684,-0.684275 c 0.85211,-0.689475 1.943413,-1.075626 2.576755,-0.911771 0.199876,0.05171 0.367927,-0.110963 0.713448,-0.690616 0.248592,-0.417044 0.451985,-0.803241 0.451985,-0.858217 0,-0.05498 -0.203393,-0.05883 -0.451985,-0.0086 -1.534562,0.310266 -2.347438,0.356822 -2.815497,0.161254 -0.496278,-0.207358 -0.724434,-0.665894 -0.570508,-1.146572 0.04463,-0.139377 0.386961,-0.461464 0.760727,-0.715748 0.373767,-0.254284 0.925951,-0.723653 1.227075,-1.043042 1.31686,-1.396729 1.997536,-1.755537 3.362701,-1.772598 0.430199,-0.0054 0.891918,-0.05321 1.026041,-0.106293 0.134124,-0.05309 0.634784,-0.668156 1.112578,-1.366824 1.367972,-2.0003517 2.661049,-3.4932623 4.171185,-4.8158108 1.583566,-1.3868555 1.877264,-1.5804553 2.084001,-1.3737187 0.09581,0.095811 -0.0889,0.5169234 -0.57295,1.306252 -0.799295,1.3033815 -0.943419,1.6984247 -1.130244,3.0979706 -0.07147,0.5354279 -0.167757,1.1333099 -0.213965,1.3286259 -0.104507,0.441744 0.22956,0.618606 1.594111,0.843958 0.830017,0.137075 1.118188,0.119642 2.292878,-0.138701 2.065335,-0.454218 3.20765,-0.374871 4.703135,0.326682 1.279689,0.600321 1.653702,1.113755 1.329558,1.825175 -0.182805,0.401213 -0.493193,0.495488 -3.167176,0.961981 -1.109102,0.193492 -2.329461,0.411241 -2.71191,0.48389 -0.382449,0.07265 -1.258605,0.199062 -1.947013,0.28092 -1.670162,0.198596 -3.00154,0.517895 -3.834022,0.919496 -0.376454,0.181608 -0.756553,0.330197 -0.844664,0.330197 -0.08811,0 -0.427506,0.219039 -0.754215,0.486753 -0.32671,0.267714 -0.652016,0.486753 -0.722899,0.486753 -0.287151,0 -0.635469,0.595365 -0.822851,1.406459 -0.229518,0.993491 -0.586142,1.749487 -1.003208,2.126672 -0.184483,0.166842 -0.292943,0.433814 -0.292943,0.721076 0,0.250879 -0.06127,0.617311 -0.136169,0.814293 -0.106692,0.280625 -0.0767,0.455679 0.138554,0.80872 0.330053,0.541323 0.358772,1.452279 0.05927,1.879885 -0.248694,0.355058 -0.61794,0.411473 -0.61794,0.09441 0,-0.299612 -0.548921,-0.853381 -1.021829,-1.030856 -0.431517,-0.16194 -1.226589,-0.01455 -1.66983,0.309557 -0.234082,0.171166 -0.218965,0.227368 0.247674,0.920791 1.143688,1.699507 0.139281,2.878478 -1.81759,2.133468 l -0.715231,-0.272304 -0.670216,1.406473 c -1.512916,3.174896 -2.341407,4.192724 -4.134693,5.079616 -1.095017,0.541548 -2.988859,1.116014 -3.708299,1.124831 -0.589098,0.0072 -0.777776,0.226911 -0.280337,0.326389 0.607706,0.121549 1.253843,0.799096 1.253843,1.314804 0,0.748501 -0.373078,1.380821 -1.048123,1.776426 -0.596869,0.349781 -0.661458,0.359627 -1.148118,0.174981 -0.694967,-0.263695 -0.722594,-0.620388 -0.105279,-1.359265 0.271516,-0.324985 0.458663,-0.647521 0.415879,-0.716737 -0.117682,-0.190418 -0.449304,-0.151464 -0.829091,0.09738 -0.292095,0.191391 -0.469478,0.20082 -1.243034,0.06612 -0.728358,-0.126834 -0.990174,-0.11995 -1.358026,0.03571 -0.729636,0.30874 -0.93122,0.654015 -1.199085,2.05375 -0.427018,2.231388 -0.816755,2.679047 -3.000612,3.446615 -0.8733532,0.306961 -1.8009196,0.932258 -1.6779839,1.131173 0.042128,0.06816 0.1732493,0.08684 0.2913829,0.04151 0.1181336,-0.04534 1.1650171,-0.0036 2.3264086,0.09268 1.8544624,0.153786 2.2429044,0.147959 3.1896364,-0.04783 0.592908,-0.12262 1.355834,-0.349503 1.695391,-0.504193 1.605669,-0.731465 3.055459,-1.095 5.011841,-1.256699 2.207077,-0.182435 2.933305,-0.129463 5.771501,0.420999 3.353566,0.650414 3.933817,0.662527 6.34372,0.132453 2.500566,-0.550017 4.419528,-0.619887 6.401201,-0.233057 1.808136,0.352965 5.36127,0.164606 7.470514,-0.529296 1.925859,-0.19991 2.607794,-0.631962 2.607794,-0.09458 -1.573813,0.552465 -6.437976,1.142634 -8.21296,1.164246 -1.123443,0.01363 -1.920821,-0.05543 -2.649885,-0.229678 -1.331558,-0.318225 -3.197677,-0.219359 -5.35445,0.283666 -1.837821,0.428649 -3.700776,0.47165 -5.562892,0.128405 -3.940443,-0.726333 -4.025174,-0.736276 -5.850967,-0.686697 -2.152593,0.05845 -3.373154,0.290021 -5.03667,0.95558 -0.674861,0.270009 -1.786806,0.624281 -2.470987,0.78726 -1.162051,0.276838 -1.353868,0.285168 -2.9128363,0.126459 -1.3782038,-0.14031 -2.7538988,-0.138753 -4.1026332,0.0046 -0.1147346,0.01224 -0.4902299,0.10913 -0.8344338,0.215395 -0.9011914,0.278242 -4.44279293,0.378221 -4.7712261,0.134678 z M 5.2167543,43.879173 C 5.5778319,43.763631 6.2292382,43.39267 6.6643246,43.054822 7.0994109,42.716973 7.8053044,42.313232 8.2329768,42.157638 9.5289555,41.686128 10.049772,41.430819 9.9720719,41.305097 9.9313974,41.239274 9.5106703,41.181907 9.0371235,41.177582 7.9062653,41.16729 7.3154834,40.945164 6.8365948,40.350255 6.5055902,39.939073 6.457684,39.779474 6.5305203,39.330646 c 0.085642,-0.527752 0.3519308,-0.866003 1.4773944,-1.876697 0.3676571,-0.330158 0.5158957,-0.577957 0.5158957,-0.86236 0,-0.804227 0.3117194,-1.836575 0.6751376,-2.235921 0.2814838,-0.309297 0.5639146,-0.437522 1.202339,-0.545859 1.411638,-0.239538 2.05428,-0.414797 2.883368,-0.786343 1.206181,-0.540532 1.830325,-0.432167 3.273641,0.568403 1.330576,0.922397 1.807538,1.043501 2.805072,0.712175 2.026474,-0.673096 3.401586,-1.769723 4.231461,-3.37452 0.224314,-0.43378 1.200442,-3.297717 1.200442,-3.522083 0,-0.166149 -1.014826,-0.169278 -1.189069,-0.0036 -0.265554,0.252417 -2.301175,0.723288 -2.946871,0.681663 -0.637818,-0.04111 -0.671171,-0.06591 -1.146248,-0.852012 -0.269121,-0.445324 -0.583187,-0.860413 -0.697922,-0.922425 -0.116783,-0.06311 -0.484084,-0.03364 -0.834434,0.06695 -0.344204,0.09883 -1.003025,0.288784 -1.464049,0.422126 -0.786451,0.227453 -0.868053,0.228051 -1.321186,0.0096 -0.278142,-0.134121 -0.571433,-0.423099 -0.691572,-0.68144 -0.175344,-0.377047 -0.321965,-0.473291 -0.919495,-0.603568 -0.920152,-0.200616 -1.550103,-0.57909 -1.696906,-1.019502 -0.130645,-0.391933 0.08884,-1.586581 0.439225,-2.390736 0.257747,-0.591536 0.930573,-1.199047 1.457764,-1.31625 1.369302,-0.30442 2.853087,-0.849778 3.570394,-1.312281 1.204952,-0.776925 2.079317,-1.127754 3.024222,-1.213435 l 0.830611,-0.07532 -0.09361,-0.709439 C 20.883792,15.726914 19.270609,12.313508 17.829723,10.533909 16.961603,9.4617174 14.712502,7.3352642 13.59995,6.5347932 12.511492,5.7516575 11.707972,5.4020812 8.8714911,4.4776425 5.7175592,3.4497424 4.9613953,3.1722598 3.8774434,2.6450255 3.4254097,2.425155 2.8994049,2.2452622 2.7085421,2.2452622 c -0.3273804,0 -0.3339947,0.014395 -0.1168597,0.2543271 0.1265905,0.1398803 0.2301633,0.2924732 0.2301633,0.3390972 0,0.046624 0.1814921,0.2834794 0.4033166,0.5263456 0.5494205,0.6015378 0.9030716,1.8973009 0.7820954,2.8655627 -0.085333,0.6829799 -0.070166,0.7431259 0.1873916,0.7431259 0.4362796,0 2.7857129,0.822927 3.2863329,1.1510918 0.2470522,0.1619455 0.597666,0.5111408 0.7791415,0.7759873 0.4300283,0.6275847 1.04402,0.9922726 1.6716923,0.9929193 1.176523,0.00125 2.6161,0.8066379 3.523101,1.9711289 0.337779,0.433671 0.985764,1.040855 1.439964,1.349298 0.860642,0.58445 0.999762,0.775504 0.999762,1.372983 0,0.526881 -0.795946,1.70198 -1.161845,1.715297 -0.164128,0.006 -1.206619,0.0019 -2.316646,-0.0091 -1.124924,-0.01115 -2.18802,0.04456 -2.401834,0.125846 -0.2109812,0.08022 -0.7186299,0.398794 -1.1281074,0.707953 -0.9251842,0.698523 -2.3034436,1.250562 -3.1222346,1.250562 -0.5822763,0 -0.6073302,0.01518 -0.4016826,0.243377 0.2830817,0.31412 0.3690632,0.70339 0.4377371,1.98178 0.080339,1.495543 0.047471,1.458323 1.3000007,1.472067 1.2129956,0.01331 1.6149869,0.17448 2.2066269,0.884701 0.3775104,0.453174 0.4003252,0.555479 0.4187009,1.877476 0.010695,0.769002 0.1024949,1.692649 0.2040135,2.052541 l 0.1845785,0.654349 0.769492,0.07673 c 1.940497,0.193477 2.786043,0.620026 2.786043,1.405472 0,0.634239 -0.317346,0.927223 -1.739973,1.606424 -0.961576,0.459078 -1.297359,0.710604 -1.893133,1.418106 -0.7328566,0.870273 -0.934325,1.068868 -1.7647397,1.739545 -1.1241076,0.907864 -3.0982057,3.530434 -4.381558,5.820857 -0.3351921,0.59822 -0.8710099,1.525763 -1.1907065,2.061191 -1.491958,2.49874 -1.4602134,2.647951 0.5338722,2.50931 0.7298501,-0.05075 1.6224287,-0.186788 1.9835063,-0.30233 z M 16.226433,30.982747 c -0.526001,-0.24887 -0.73604,-0.435282 -0.80642,-0.715694 -0.164131,-0.65396 0.483818,-1.134913 2.062242,-1.530762 1.846263,-0.463027 2.645133,-0.315152 3.535477,0.65444 0.461154,0.502204 0.588648,0.741937 0.554148,1.042013 -0.06591,0.573312 -0.490323,0.699436 -2.687183,0.798623 -1.864915,0.08421 -1.977003,0.07372 -2.658264,-0.24862 z m 4.687706,-0.373715 c 0.358943,-0.192101 0.343257,-0.249746 -0.256645,-0.943161 -0.352725,-0.407704 -0.678452,-0.634475 -1.007899,-0.701717 -1.154566,-0.235623 -3.645933,0.47076 -3.729391,1.057423 -0.03199,0.22488 0.08169,0.387552 0.417217,0.597023 0.426794,0.266449 0.604781,0.282122 2.386329,0.210152 1.058825,-0.04276 2.0445,-0.141631 2.190389,-0.21972 z m -10.032227,9.753976 c 0.152718,-0.299354 0.349443,-1.003407 0.437167,-1.564564 0.29922,-1.914066 1.123395,-2.558179 2.82211,-2.20552 0.713598,0.14814 0.825191,0.136917 1.250144,-0.125721 1.182005,-0.730519 1.598571,0.09379 0.616388,1.219733 -0.446391,0.511717 -0.451661,0.706641 -0.02339,0.865072 0.708601,0.262123 1.857323,-0.70913 1.857323,-1.570377 0,-0.498977 -0.693271,-1.163729 -1.329435,-1.274751 -0.645198,-0.112592 -1.312939,-0.359237 -1.312939,-0.484972 0,-0.206676 0.621164,-0.451387 1.091383,-0.429984 1.213643,0.05527 1.222377,0.03888 0.329632,-0.618316 -1.507196,-1.109533 -2.113712,-1.278644 -2.979753,-0.83079 -0.522692,0.270287 -2.198564,0.746832 -2.94859,0.838453 -1.1912626,0.145498 -1.5724653,0.630429 -1.6920022,2.152394 -0.061189,0.77907 -0.3205992,1.187386 -1.1682352,1.838856 -0.651309,0.500577 -1.0548189,1.355566 -0.8342558,1.767693 0.2813294,0.525679 0.8131252,0.733161 2.1290788,0.830693 0.7011108,0.05196 1.3204124,0.103901 1.3762264,0.11543 0.05581,0.01154 0.226429,-0.223976 0.379148,-0.523329 z M 21.805216,27.494195 c 0.382449,-0.108866 0.973782,-0.29984 1.314072,-0.424407 0.346422,-0.126806 0.924525,-0.21025 1.313601,-0.189598 0.61746,0.03277 0.718978,-0.0031 0.911084,-0.321368 0.118907,-0.197038 0.482171,-0.592434 0.807253,-0.87866 0.325081,-0.286222 0.591057,-0.582315 0.591057,-0.657986 0,-0.07567 -0.165261,-0.333982 -0.367245,-0.574028 -0.328196,-0.390037 -1.440695,-2.592593 -1.440695,-2.852323 0,-0.05666 -0.0725,-0.175526 -0.161115,-0.26414 -0.122104,-0.122104 -0.282051,-0.06637 -0.660594,0.230208 -0.771558,0.604486 -1.112747,0.743023 -1.60328,0.650999 -0.889882,-0.166944 -1.320352,-1.039136 -1.326645,-2.687965 l -0.0033,-0.869202 -0.521521,0.0029 c -0.723052,0.0041 -2.215008,0.555459 -3.110035,1.149396 -0.885214,0.587425 -1.185006,0.709493 -2.821691,1.148913 -0.684689,0.183827 -1.376984,0.462925 -1.548914,0.624445 -0.400541,0.376288 -0.898467,1.67858 -0.898467,2.34988 0,0.691063 0.319046,0.959032 1.336738,1.122735 0.590049,0.09491 0.885226,0.220057 1.056291,0.447823 0.693281,0.923071 0.844192,1.080988 1.033018,1.080988 0.113424,0 0.762092,-0.187748 1.441484,-0.417217 1.666953,-0.563018 1.861758,-0.549828 2.330782,0.157819 0.560111,0.845087 1.09045,1.372199 1.378705,1.370335 0.13974,-0.0014 0.566987,-0.09072 0.949435,-0.199582 z m 6.19786,0.05727 c 0.488166,-0.261262 0.313319,-1.073054 -0.394677,-1.832435 l -0.351548,-0.377066 -0.410119,0.292031 c -0.454526,0.323651 -0.93756,1.035028 -0.938363,1.381958 -9.73e-4,0.450385 1.524864,0.840483 2.094707,0.535512 z M 9.527142,27.258272 C 9.5562943,27.17081 9.4771552,26.795023 9.3512767,26.423199 9.1728275,25.896069 9.1494383,25.57476 9.2451075,24.964685 9.408142,23.925023 9.2068571,23.331214 8.5456127,22.901108 8.0283694,22.564668 6.5979926,22.295211 6.301617,22.478382 c -0.2077809,0.128417 0.1199374,0.624731 0.9812289,1.486021 0.5040996,0.504101 0.7166563,0.854363 0.8899585,1.46652 0.1252249,0.442334 0.2576398,0.907442 0.2942547,1.033566 0.074607,0.256992 0.7308028,0.952785 0.8985601,0.952785 0.059686,0 0.1323704,-0.07155 0.1615228,-0.159002 z m 21.526383,-2.728801 c 0,-0.13499 -0.131563,-0.490903 -0.292362,-0.79092 -0.250774,-0.467891 -0.270557,-0.618261 -0.139073,-1.057118 0.437038,-1.4587 -0.0406,-2.314892 -1.778594,-3.188235 -0.490034,-0.246242 -0.737336,-0.287885 -1.251651,-0.210767 -0.352525,0.05286 -0.766119,0.161666 -0.919098,0.241794 -0.446734,0.233988 -1.599332,1.230615 -1.599332,1.382907 0,0.07668 0.11417,0.305539 0.25371,0.508571 0.139541,0.203031 0.398144,0.775936 0.574673,1.273119 0.311654,0.87775 1.009611,1.947013 1.270904,1.947013 0.0709,0 0.411002,-0.132603 0.755791,-0.294674 0.83243,-0.391288 2.149435,-0.325515 2.605049,0.130098 0.367691,0.367692 0.519983,0.384741 0.519983,0.05821 z M 23.73223,21.361264 c 0.355203,-0.271217 0.645824,-0.557653 0.645824,-0.636522 0,-0.306788 -0.792778,-0.917669 -1.31904,-1.016397 -0.301975,-0.05665 -0.717275,-0.222791 -0.922891,-0.369202 -0.205614,-0.146411 -0.415234,-0.266201 -0.465818,-0.266201 -0.05059,0 -0.05139,0.453724 -0.0018,1.008274 0.07365,0.823333 0.156627,1.078424 0.452375,1.390723 0.47986,0.506713 0.834682,0.482342 1.611331,-0.110675 z m 8.220553,-1.898625 c 0.117327,-0.395079 0.21332,-0.85614 0.21332,-1.024581 0,-0.333012 0.888245,-1.222185 1.37535,-1.376784 0.415452,-0.13186 0.364998,-0.270838 -0.168341,-0.463695 -0.693345,-0.250717 -1.647171,-0.201979 -2.510148,0.128263 -0.702178,0.268709 -0.82216,0.380381 -1.333562,1.241197 -0.309079,0.520257 -0.561962,0.976551 -0.561962,1.013985 0,0.03743 0.30608,0.256393 0.680178,0.486578 0.374097,0.230184 0.856275,0.649394 1.071504,0.931575 l 0.391329,0.513058 0.314507,-0.365635 c 0.172978,-0.2011 0.410499,-0.688883 0.527825,-1.083961 z M 7.123615,17.66353 c 0.5149347,-0.173896 1.1902574,-0.550378 1.630577,-0.909023 0.4133827,-0.336706 0.9217991,-0.677893 1.1298137,-0.758193 0.2191543,-0.0846 1.2847513,-0.13354 2.5338293,-0.116371 1.185591,0.0163 2.225153,0.02169 2.310136,0.01199 0.08498,-0.0097 0.299452,-0.290857 0.476599,-0.624782 C 15.637794,14.450516 15.459499,14.02492 14.413087,13.37785 13.983774,13.112374 13.40402,12.584204 13.115519,12.195733 12.180301,10.936446 11.412428,10.487594 9.9698912,10.356988 L 9.0105634,10.270127 8.099726,9.344727 C 7.1778755,8.4081375 6.7185836,8.1554418 4.9513348,7.6125201 3.7612833,7.2469199 3.7392876,7.2798953 4.2821049,8.6157781 c 0.4343659,1.0689793 0.4339487,1.3958309 -0.00349,2.7358879 -0.3896027,1.193514 -0.3813432,1.37695 0.1472817,3.270962 0.2150434,0.770479 0.320762,1.489181 0.3035991,2.063932 -0.02177,0.729084 0.020093,0.915765 0.2417049,1.07781 0.380595,0.278298 1.1342876,0.242988 2.1524144,-0.10084 z m 21.734312,-0.768243 0.93353,-0.213983 0.650515,-1.203178 c 0.357783,-0.661748 0.798204,-1.396834 0.978715,-1.633523 0.180509,-0.236689 0.328199,-0.479603 0.328199,-0.53981 0,-0.06021 -0.46439,-0.07966 -1.031979,-0.04324 -0.856564,0.05497 -1.146146,0.140516 -1.703636,0.503268 -0.369411,0.240371 -0.87999,0.689843 -1.13462,0.998826 -0.25463,0.308984 -0.802227,0.812417 -1.216883,1.118741 -1.611781,1.190692 -0.605084,1.654994 2.196159,1.012899 z m 2.278443,-0.687851 c 0.525205,-0.219445 0.973524,-0.214914 2.642246,0.0267 l 0.569469,0.08245 0.155543,-0.603606 c 0.08555,-0.331984 0.195555,-0.94781 0.24446,-1.368503 0.12028,-1.034694 0.395929,-1.573334 1.140593,-2.228814 l 0.627824,-0.552633 -0.694803,0 c -0.534909,0 -0.899464,0.113126 -1.584143,0.491579 -0.489138,0.270369 -1.085239,0.58099 -1.324667,0.690268 -0.427578,0.195151 -1.425455,1.584724 -2.118456,2.950014 -0.429083,0.84534 -0.434639,0.837011 0.341934,0.512545 z M 36.137814,15.7505 c 0.618583,-0.225113 1.685627,-0.4709 2.425615,-0.558725 1.806128,-0.214359 5.893835,-0.92209 7.888107,-1.36572 0.952695,-0.211928 0.594695,-0.970099 -0.756675,-1.602481 -1.255507,-0.587522 -2.460168,-0.657994 -4.2557,-0.248958 -1.654702,0.376954 -3.573634,0.30463 -4.072574,-0.153495 -0.292427,-0.268506 -0.294064,-0.267691 -1.076136,0.536167 -0.579708,0.595855 -0.83401,0.985793 -0.978532,1.500443 -0.186221,0.663145 -0.41564,2.294693 -0.322668,2.294693 0.02427,0 0.541125,-0.180865 1.148563,-0.401924 z m -2.44049,-3.917849 c 0.552807,-0.381731 1.966217,-0.788805 2.509607,-0.722788 0.67191,0.08163 0.81022,-0.129942 0.963496,-1.4738574 0.171209,-1.5011382 0.336699,-2.0567307 0.834445,-2.8014267 0.584384,-0.8743198 0.524318,-0.9491797 -0.241108,-0.3004825 -1.705276,1.4452186 -2.972126,2.862022 -4.241264,4.7432896 -0.724692,1.074225 -0.698264,1.158162 0.174824,0.555265 z m 14.33839,23.640254 c -1.314833,-0.170558 -2.699131,-0.495862 -3.581931,-1.181363 l -0.793295,-0.616007 -1.518798,0 c -1.797071,0 -2.092025,-0.125068 -2.654399,-1.125513 -0.21046,-0.374396 -0.491923,-0.739197 -0.625472,-0.810666 -0.133551,-0.07148 -0.646464,-0.127084 -1.139806,-0.12358 -0.672868,0.0047 -1.088104,-0.08108 -1.661885,-0.343633 -1.135471,-0.519575 -1.947025,-1.155789 -1.946943,-1.526277 1.39e-4,-0.759279 1.033972,-2.800798 2.17475,-4.294617 0.71137,-0.931527 1.568371,-1.530697 2.753446,-1.925064 0.603228,-0.200741 1.15441,-0.531719 1.80628,-1.084651 1.382132,-1.172356 2.041518,-1.666261 2.55759,-1.915724 0.603506,-0.29173 3.397526,-0.09353 4.630463,0.207254 0,0.878012 -1.548147,0.01819 -2.870756,-0.02014 -1.428559,-0.02681 -2.034299,0.259408 -3.666677,1.732516 -0.656889,0.592795 -1.236407,1.07781 -1.287818,1.07781 -0.05141,0 -0.601674,0.194063 -1.222808,0.431252 -0.910229,0.347584 -1.276465,0.580751 -1.887688,1.201812 -1.180172,1.199165 -2.704284,4.003773 -2.502322,4.604663 0.101342,0.301523 1.246713,1.054669 1.949236,1.281732 0.305959,0.09889 1.02543,0.184132 1.598825,0.18943 l 1.042536,0.0096 0.448429,0.695362 c 0.877712,1.361031 0.649651,1.243946 2.573597,1.321187 l 1.732206,0.06954 0.759531,0.586551 c 0.417741,0.322607 0.975412,0.676754 1.23927,0.786997 2.094439,0.495877 2.094439,0.269064 2.094439,0.771525 z M 0,32.446433 c 1.7031574,0.03384 2.3638791,-0.09666 3.2478742,-0.551344 0.4910866,-0.252597 1.1593721,-0.495779 1.4850795,-0.540435 0.325706,-0.04464 0.5921935,-0.125735 0.5921935,-0.18021 0,-0.05447 -0.2560071,-0.214491 -0.5689031,-0.35558 C 4.3327356,30.627876 3.8973363,30.568478 3.0526083,30.586405 2.4245467,30.599755 1.5564462,30.518735 1.1084247,30.404985 0,29.924953 -1.3834933,31.564042 3.1332105,30.187226 c 1.5935726,-0.0033 1.9658956,0.122745 3.0812124,1.043014 0.4461175,0.368097 0.430305,0.892413 -0.021246,0.704471 -0.1332118,-0.05543 -0.5370124,-0.132244 -0.8973335,-0.17067 -0.5328124,-0.05682 -0.818435,0.0081 -1.5297954,0.34782 C 2.461031,32.735072 2.3420477,32.758395 0.43371413,32.765237 0,33.513712 -0.63470689,32.436867 0,32.446433 z M 23.145788,11.563221 c -0.257051,-0.06073 -0.568113,-0.211165 -0.691246,-0.334298 -0.205791,-0.205791 -0.17964,-0.260328 0.323666,-0.675012 0.301148,-0.248123 0.706084,-0.5982436 0.899854,-0.778046 0.605075,-0.5614544 1.130266,-0.7554505 2.016977,-0.7450368 0.46125,0.00541 1.308005,0.00356 1.881678,-0.00412 3.105711,-0.041595 3.018527,-0.047721 3.329515,0.2339627 0.468443,0.4243013 0.313147,0.7952641 -0.498075,1.1897871 -0.393198,0.191225 -0.806065,0.425634 -0.917484,0.52091 -0.116793,0.09987 -0.815229,0.208843 -1.649325,0.25733 -0.795711,0.04625 -1.884824,0.171642 -2.420252,0.278641 -1.062729,0.212373 -1.561113,0.224614 -2.275308,0.05588 z m 2.067617,-0.4243 c 0.26721,-0.08028 1.266525,-0.204069 2.2207,-0.275079 1.425126,-0.106057 1.806752,-0.182257 2.137518,-0.426802 0.221459,-0.163731 0.567255,-0.341716 0.768437,-0.39552 0.201181,-0.053805 0.365784,-0.1856898 0.365784,-0.29308 0,-0.3797648 -0.700357,-0.4708488 -2.205748,-0.2868645 -1.135548,0.1387817 -1.563173,0.1405966 -2.00407,0.0085 -0.913836,-0.2737916 -1.714841,-0.074166 -2.601922,0.6484445 -0.792208,0.645329 -0.946428,0.9602 -0.524325,1.070506 0.459697,0.120132 1.358314,0.09571 1.843626,-0.05011 z M 23.335011,5.611278 C 22.952563,5.4788853 22.269612,5.105433 21.817344,4.7813848 20.907061,4.129169 20.351261,4.0446604 18.94937,4.3453124 18.556718,4.4295207 17.962117,4.4574298 17.628036,4.4073317 17.14035,4.3341978 16.965182,4.2265503 16.7394,3.8612282 16.129338,2.8741263 15.662777,2.5170846 14.086703,1.8312119 13.004646,1.3603256 11.971017,0.62351631 11.711046,0.13775481 c -0.266514,-0.49798596 -0.0093,-0.45043435 0.599641,0.1108754 0.326646,0.30107486 0.906814,0.69327964 1.289263,0.87156899 2.458263,1.1459822 2.504835,1.1791092 3.526392,2.5083012 0.296411,0.3856725 0.523877,0.4050842 2.662325,0.2271871 1.283465,-0.10677 1.335085,-0.099679 1.807941,0.248347 1.505635,1.1081602 2.308991,1.4373902 3.116503,1.2771956 0.264839,-0.052537 0.794577,-0.4306652 1.380006,-0.9850478 0.522592,-0.4948763 1.085835,-0.9330528 1.251651,-0.9737245 0.165817,-0.040672 0.817854,0.016947 1.448971,0.1280425 C 30.1489,3.7890482 30.667867,3.6895837 31.239154,3.0818197 31.674278,2.6189119 31.628395,2.6297888 33.236938,2.608188 34.677119,2.588847 34.808476,2.4815112 34.489287,1.5848509 36.473717,1.2656247 34.700441,-0.125 36.41469,-0.125 c 0.112305,0.3307863 -1.330516,2.2465546 -1.354321,2.413796 -0.07204,0.5061314 -0.851648,0.7903674 -2.1685,0.7906149 -0.909447,1.391e-4 -1.16903,0.045343 -1.234036,0.2147485 C 31.529009,3.6298689 30.487068,4.0938642 29.872217,4.0893276 29.565814,4.0870607 28.908334,4.0228608 28.411151,3.9466478 27.33623,3.7818735 27.1061,3.8726112 26.185994,4.8240146 25.13294,5.9128855 24.617467,6.0552274 23.335011,5.611278 z"
       style="fill:#000000"
       sodipodi:nodetypes="ccssscssscscsssssccsssssssssssccsssssssssssssscsssscscssccsssssssssssssssssssscssssssscssccsccscsscsscccssssssccccsssscscccccsscccssscsssssscccccccssssssscssssssssssssscssscscssssssssccssssssscccsssssccscssccssssscssscsccsssscsccscssssssscccssssssssscccsscscsccssssssscssssssssssssscsssscsccssssssssscssssssssssscssssssssscsssssssssscssscsssssssssssssssssssssscscssccscssssccssssssccsscscccscsccccscscccsssscssssssscsssssssscssssssscssssssssssccscscsss" />
    <path
       style="fill:none;stroke:#000000;stroke-width:0.30000001;stroke-linecap:butt;stroke-linejoin:miter;stroke-miterlimit:4;stroke-opacity:1;stroke-dasharray:none"
       d="m 0,-0.125 48.035713,0 0,48.125 L 0,48 z"
       id="rect3904"
       inkscape:connector-curvature="0" />
    <path
       style="fill:#00009a;fill-opacity:1;stroke-width:0.30000001;stroke-miterlimit:4;stroke-dasharray:none"
       d="M 1.8207825,44.06629 C 1.505166,43.835496 1.5717097,43.686068 3.3820798,40.560309 c 2.1233338,-3.666118 3.5404537,-5.56366 5.2421287,-7.01928 0.4500387,-0.384965 1.004031,-0.947482 1.5121815,-1.535449 0.504654,-0.583922 0.903558,-0.876306 1.864198,-1.366394 1.42255,-0.72574 1.673703,-0.965507 1.673703,-1.597823 0,-0.394942 -0.137956,-0.636173 -0.492347,-0.860922 -0.47651,-0.302193 -1.275333,-0.495177 -2.53811,-0.613169 l -0.473509,-0.04424 -0.108608,-0.327286 C 9.8946003,26.692141 9.8289537,26.167346 9.7656506,24.828907 9.6980701,23.400035 9.6665666,23.29266 9.1586985,22.760214 8.6408893,22.217345 8.3770949,22.123147 7.1767517,22.05248 6.1721914,21.99334 6.0249597,21.950156 5.9427533,21.690541 5.9249617,21.634353 5.8686863,21.076992 5.8176968,20.45196 5.7231078,19.292481 5.6631267,19.002028 5.4571453,18.706014 5.2730094,18.441394 5.306806,18.400087 5.7074494,18.400087 c 0.8476377,0 1.9279514,-0.420401 3.1686173,-1.233059 0.4340499,-0.28431 0.8867902,-0.567001 1.0060892,-0.628202 0.3060361,-0.156997 1.1830381,-0.216199 3.2505311,-0.219426 l 1.762805,-0.0028 0.260142,-0.271499 c 0.303861,-0.317127 0.628125,-0.866809 0.718436,-1.217871 0.0876,-0.340515 0.0015,-0.811242 -0.18544,-1.01342 -0.08353,-0.09036 -0.423229,-0.370655 -0.754889,-0.622889 C 14.60208,12.938736 13.967629,12.347531 13.52385,11.877181 12.219429,10.494663 11.362292,9.9982787 10.069171,9.8765149 9.364894,9.8101978 8.9693543,9.6135204 8.5007792,9.09665 7.6659068,8.1757281 7.5432089,8.0827476 6.7164159,7.7444592 5.9068332,7.4132123 4.6562052,7.0055629 4.2546359,6.9420278 L 4.0210552,6.9050714 4.0304948,6.0392369 C 4.0383712,5.316778 4.0167984,5.0917592 3.9002177,4.6803649 3.7370813,4.1046827 3.5195137,3.6517973 3.2662056,3.3606152 3.1669163,3.2464804 2.952174,2.9571782 2.7890004,2.7177214 L 2.4923212,2.2823453 2.803566,2.3192077 c 0.1711846,0.020274 0.6635663,0.1927723 1.0941815,0.3833289 1.1645959,0.5153591 1.255754,0.5490365 4.1269569,1.5246605 4.3233706,1.4690655 4.6884806,1.6378741 6.2177976,2.874801 0.66419,0.5372034 2.449159,2.2329759 3.082042,2.9280289 0.904126,0.992942 1.703666,2.238794 2.499456,3.894679 0.725453,1.509528 1.095662,2.63067 1.324773,4.011946 0.0378,0.227915 -0.02821,0.273982 -0.392794,0.274118 -0.336694,1.27e-4 -1.187026,0.162284 -1.590403,0.303291 -0.431349,0.150785 -0.868191,0.369574 -1.626341,0.814539 -0.980557,0.575498 -2.024748,0.990332 -3.317906,1.31813 -0.346952,0.08795 -0.706085,0.198826 -0.798073,0.246394 -0.302249,0.156299 -0.813482,0.664559 -1.004812,0.998969 -0.279548,0.488599 -0.515675,1.365513 -0.556773,2.067711 l -0.03533,0.603656 0.208241,0.237174 c 0.260756,0.296985 0.757336,0.547352 1.450306,0.731221 0.696305,0.184753 0.725782,0.202759 0.978365,0.597609 0.356755,0.5577 0.809256,0.85692 1.29589,0.85692 0.131191,0 0.685974,-0.129597 1.232851,-0.287994 1.253171,-0.362966 1.626075,-0.434396 1.795212,-0.343877 0.0704,0.03768 0.35495,0.407252 0.632328,0.821275 0.277378,0.414023 0.568416,0.789041 0.646752,0.833373 0.38741,0.219247 2.27493,-0.0336 3.236022,-0.433495 0.573851,-0.238768 0.822138,-0.292472 1.135156,-0.245532 0.234181,0.03512 0.285371,0.06657 0.285371,0.175319 0,0.213684 -0.874475,2.748242 -1.142797,3.312255 -0.61511,1.292966 -1.643965,2.278588 -3.118784,2.98773 -0.964213,0.463626 -1.379196,0.591714 -1.925604,0.594354 -0.578178,0.0028 -0.771387,-0.07801 -1.844214,-0.771317 -1.729582,-1.117724 -2.082497,-1.175592 -3.553788,-0.582716 -0.739659,0.298055 -1.150733,0.414485 -2.241276,0.634806 -1.1508645,0.232508 -1.405118,0.332587 -1.7127896,0.674185 -0.3453813,0.383465 -0.6863229,1.449585 -0.6863229,2.146123 0,0.34572 -0.2084166,0.640164 -0.9372263,1.324078 -0.8377519,0.786147 -1.047914,1.131717 -1.05004,1.726589 -0.00135,0.376969 0.018402,0.43885 0.2337631,0.732435 0.4629314,0.631079 0.9172914,0.823496 2.1638776,0.916379 0.4861359,0.03622 0.9245491,0.08861 0.9742524,0.116415 0.1157275,0.06474 -0.2752337,0.265994 -1.3303419,0.6848 -0.8608078,0.341683 -1.0812099,0.462621 -2.1219767,1.164363 -0.3906645,0.263408 -0.8594385,0.53455 -1.0417198,0.602538 -0.524619,0.195675 -1.4521534,0.33384 -2.4779947,0.369123 -0.8136359,0.02798 -0.9670253,0.01794 -1.0890707,-0.0713 z M 19.672072,31.213127 c 1.528343,-0.108778 1.915081,-0.278814 1.915081,-0.841996 0,-0.330863 -0.159658,-0.606034 -0.634456,-1.093492 -0.843761,-0.866257 -1.745428,-1.009849 -3.508586,-0.558751 -1.454137,0.372038 -2.065625,0.778838 -2.064951,1.373737 1.26e-4,0.114577 0.05277,0.29447 0.116981,0.399763 0.122113,0.200243 0.721285,0.556853 1.173701,0.698555 0.319076,0.09994 1.760185,0.110586 3.00223,0.02218 z"
       id="path4189"
       inkscape:connector-curvature="0" />
    <path
       style="fill:#00009a;fill-opacity:1;stroke-width:0.30000001;stroke-miterlimit:4;stroke-dasharray:none"
       d="M 30.795764,20.425395 C 30.658417,20.231326 30.206556,19.82589 29.79163,19.524426 L 29.037218,18.97631 29.37171,18.354211 c 0.53173,-0.988929 0.90626,-1.362718 1.608482,-1.605298 0.782622,-0.270355 2.044066,-0.288641 2.516315,-0.03648 l 0.308162,0.164547 -0.399531,0.203048 c -0.57622,0.292843 -1.218202,1.00965 -1.287606,1.437679 -0.149349,0.92108 -0.686753,2.142221 -0.982759,2.233121 -0.04911,0.01508 -0.201661,-0.131365 -0.339009,-0.325434 z"
       id="path4191"
       inkscape:connector-curvature="0" />
    <path
       style="fill:#00009a;fill-opacity:1;stroke-width:0.30000001;stroke-miterlimit:4;stroke-dasharray:none"
       d="m 33.143702,12.020849 c 0,-0.249552 1.49192,-2.2243784 2.693165,-3.5648921 0.574895,-0.6415465 2.209563,-2.1473033 2.40331,-2.213784 0.05012,-0.017196 -0.06859,0.2296634 -0.263783,0.5485771 -0.471202,0.7698528 -0.610398,1.2098416 -0.818476,2.5871449 -0.243291,1.6103841 -0.245289,1.6135411 -1.068817,1.6887411 -0.829871,0.07578 -1.960903,0.42661 -2.521292,0.782069 -0.233259,0.147959 -0.424107,0.225423 -0.424107,0.172144 z"
       id="path4193"
       inkscape:connector-curvature="0" />
    <path
       style="fill:#483e37;fill-opacity:1;stroke-width:0.30000001;stroke-miterlimit:4;stroke-dasharray:none"
       d="m 9.3490587,43.634819 c -0.4419643,-0.03613 -1.1551339,-0.06994 -1.5848214,-0.07514 -0.4296875,-0.0052 -0.78125,-0.04573 -0.78125,-0.09006 0,-0.162105 0.9783615,-0.723495 1.9501097,-1.118984 1.962353,-0.798653 2.19566,-1.077402 2.688364,-3.211982 0.301405,-1.305798 0.442871,-1.659705 0.764582,-1.912762 0.433551,-0.341034 0.824005,-0.405156 1.780297,-0.292375 0.800236,0.09438 0.89446,0.08858 1.271459,-0.07818 0.423441,-0.187308 0.741617,-0.233084 0.741617,-0.106695 0,0.04038 -0.180371,0.331674 -0.400822,0.647321 -0.509934,0.730131 -0.535161,1.057863 -0.102033,1.325551 0.429932,0.265712 0.916972,0.24157 1.400553,-0.06942 0.734973,-0.472664 1.066588,-1.013258 1.066588,-1.738743 0,-0.578805 -0.336113,-0.98544 -1.116072,-1.350245 -0.497951,-0.232903 -0.483328,-0.24482 0.446429,-0.363856 1.112156,-0.142388 2.963202,-0.796947 4.006934,-1.416916 0.749528,-0.445214 1.51466,-1.190455 2.049639,-1.996353 0.290465,-0.43756 1.619454,-2.969754 2.150951,-4.098326 0.0037,-0.0079 0.307368,0.08659 0.674775,0.209977 0.518506,0.174127 0.795905,0.216191 1.239453,0.187948 0.514128,-0.03274 0.598239,-0.06638 0.838635,-0.335429 0.249681,-0.279441 0.264227,-0.334715 0.22191,-0.843233 -0.03535,-0.424806 -0.125933,-0.683264 -0.412899,-1.178124 -0.202187,-0.348665 -0.367613,-0.682102 -0.367613,-0.740974 0,-0.188453 0.730003,-0.451415 1.258925,-0.453489 0.413108,-0.0016 0.562803,0.04354 0.861406,0.259842 0.205682,0.148996 0.430454,0.4183 0.52165,0.625 0.194056,0.439838 0.382557,0.463725 0.698297,0.08849 0.335749,-0.399015 0.350116,-1.259866 0.03231,-1.93597 -0.172135,-0.366201 -0.176055,-0.435393 -0.06756,-1.192324 0.09553,-0.666451 0.163933,-0.867445 0.400913,-1.177958 0.407723,-0.534238 0.616061,-0.976473 0.891442,-1.892254 0.26445,-0.879428 0.611933,-1.5625 0.794853,-1.5625 0.06427,0 0.378764,-0.198274 0.698881,-0.440609 0.606763,-0.459331 2.092988,-1.107806 3.178078,-1.386668 0.310109,-0.0797 1.495377,-0.285288 2.633929,-0.45687 2.094114,-0.315588 5.788914,-0.955949 6.445093,-1.117026 0.934284,-0.229347 1.205357,-0.482524 1.205357,-1.125781 0,-0.422371 -0.43813,-0.844377 -1.344778,-1.29529 -1.44941,-0.72085 -2.52037,-0.80555 -4.886576,-0.386465 l -1.454567,0.257623 -0.850286,-0.15066 c -1.158014,-0.205185 -1.463793,-0.340376 -1.463793,-0.647172 0,-0.381078 0.349553,-2.3583867 0.503706,-2.8492961 0.0771,-0.2455357 0.353414,-0.828125 0.614026,-1.2946429 0.745359,-1.334254 0.837052,-1.5280132 0.78603,-1.6609763 -0.154373,-0.4022862 -1.051707,0.2137079 -2.874813,1.9734763 -1.128059,1.0888678 -2.074521,2.2058197 -3.291092,3.883929 -1.185186,1.634817 -1.165161,1.619863 -2.286237,1.707358 -1.340914,0.104652 -1.751717,0.285142 -2.782083,1.222327 -0.469036,0.426619 -1.19496,1.061615 -1.613163,1.411102 -0.418204,0.349488 -0.817657,0.711095 -0.887675,0.803572 -0.202622,0.267617 -0.160966,0.701542 0.09675,1.007818 0.413789,0.491759 1.091865,0.546728 2.883607,0.233762 0.374717,-0.06545 0.696717,-0.104055 0.715555,-0.08578 0.04744,0.04602 -0.667107,1.23766 -0.810555,1.351758 -0.0641,0.05099 -0.385592,0.113223 -0.714419,0.138299 -0.746417,0.05692 -1.49832,0.397955 -2.332935,1.058132 l -0.609371,0.48201 -0.462058,-0.448765 c -0.331734,-0.322192 -0.625745,-0.507423 -1.042413,-0.656732 -0.693246,-0.248418 -1.396096,-0.675919 -1.53356,-0.932773 -0.05466,-0.102135 -0.172662,-0.564068 -0.262226,-1.026518 -0.23947,-1.236481 -0.488604,-1.95087 -1.159216,-3.32404 C 18.939952,11.069123 18.130193,9.9744612 15.903145,7.9569902 13.130544,5.4453043 13.0994,5.42882 7.6079873,3.5665752 6.1593265,3.0753061 4.641952,2.5125697 4.2360438,2.3160498 3.5202051,1.9694776 2.362598,1.684904 2.1651149,1.8069553 1.977807,1.922718 2.0826466,2.2804014 2.520132,3.0181731 3.291264,4.3186039 3.5181517,4.8489512 3.5677625,5.4669975 3.6232929,6.1587885 3.5559503,6.4608786 3.3177908,6.5883376 3.0419306,6.7359735 2.3347786,6.3679225 1.4899496,5.6370023 1.096011,5.2961788 0.64400201,4.9636015 0.48548525,4.8979416 l -0.2882123,-0.1193814 0,-2.3552392 0,-2.35523929 5.70820595,0 5.7082061,0 0.190481,0.26750593 c 0.289199,0.40614264 1.15999,0.98058036 2.553578,1.68452796 1.298246,0.6557871 1.534903,0.8467747 2.455798,1.981883 l 0.321625,0.3964403 0.883732,-0.010341 c 0.486052,-0.00569 1.345785,-0.025777 1.910517,-0.044643 l 1.026786,-0.034302 0.917317,0.5674086 c 1.488311,0.9205976 2.606773,1.203446 3.298712,0.8342128 0.158103,-0.084367 0.628903,-0.4658865 1.046222,-0.8478222 1.019065,-0.9326587 1.168266,-0.9888947 2.294784,-0.8649355 1.709002,0.1880542 2.323527,0.085849 3.008354,-0.5003371 0.361454,-0.3093913 0.384753,-0.3156291 1.463456,-0.3918059 0.602885,-0.042575 1.233169,-0.1197681 1.400631,-0.1715399 0.3055,-0.094447 0.722309,-0.4196683 0.722309,-0.5635915 0,-0.042309 0.235202,-0.447136 0.522671,-0.8996148 0.287469,-0.4524788 0.589839,-0.9532691 0.671936,-1.11286732 l 0.149265,-0.29017857 5.711993,0 5.711993,0 0,10.30309729 0,10.303097 -0.327606,-0.07389 c -0.633581,-0.142896 -2.651374,-0.287736 -3.345604,-0.240152 -0.874247,0.05992 -1.089447,0.179682 -2.784758,1.549735 -0.80739,0.652485 -1.507572,1.138088 -1.93489,1.34192 -0.368303,0.175682 -0.994199,0.473909 -1.390879,0.662728 -0.867932,0.413134 -1.563446,1.078883 -2.370795,2.269339 -0.619315,0.913195 -1.452979,2.576585 -1.583517,3.159552 -0.144943,0.647304 0.06613,0.93119 1.175983,1.581657 0.901705,0.528475 1.339332,0.661413 2.450315,0.744331 0.651842,0.04865 1.068103,0.120408 1.144743,0.197337 0.06624,0.06649 0.312921,0.398985 0.548184,0.73888 0.235264,0.339895 0.528198,0.691077 0.650966,0.780402 0.328183,0.238787 1.039131,0.342678 2.345016,0.342678 l 1.159928,0 0.617473,0.457752 c 0.33961,0.251763 0.891307,0.569189 1.225994,0.705391 0.520558,0.211842 0.922814,0.317841 2.218554,0.584613 l 0.200893,0.04136 0,2.880611 0,2.880611 -0.245536,0.01902 c -0.535887,0.04151 -2.06792,0.307327 -2.700893,0.468615 -1.25084,0.318726 -2.362362,0.457377 -4.067804,0.507415 -1.471214,0.04317 -1.893946,0.02248 -3.120707,-0.152676 -2.072569,-0.295928 -3.532049,-0.232785 -6.204346,0.268425 -1.844875,0.346019 -2.092779,0.372897 -3.035715,0.329129 -0.611982,-0.02841 -1.820323,-0.192392 -2.991071,-0.405922 -3.241208,-0.591157 -4.172337,-0.659607 -6.218219,-0.457114 -1.87064,0.185148 -2.713657,0.389261 -4.629995,1.121026 -1.92725,0.735932 -2.893174,0.855528 -5.3125003,0.657766 l 0,0 z M 25.554416,11.537153 c 0.466518,-0.07087 1.490161,-0.190905 2.274761,-0.266742 1.541688,-0.149014 1.77836,-0.226398 2.818767,-0.921649 0.393402,-0.262891 0.492027,-0.3787178 0.513917,-0.6035544 0.02155,-0.2213321 -0.03138,-0.327425 -0.25879,-0.5187812 l -0.285877,-0.2405491 -2.955496,0.02771 c -3.446679,0.032314 -3.144416,-0.044524 -4.500939,1.1441729 -0.951348,0.833649 -1.007212,1.002811 -0.425021,1.286995 0.355954,0.173751 1.21409,0.299174 1.702606,0.248849 0.147322,-0.01518 0.649554,-0.08558 1.116072,-0.156451 l 0,0 z"
       id="path4195"
       inkscape:connector-curvature="0" />
    <path
       style="fill:#483e37;fill-opacity:1;stroke-width:0.30000001;stroke-miterlimit:4;stroke-dasharray:none"
       d="m 0.46513009,43.931574 c -0.0736607,-0.02804 -0.16344726,-0.09518 -0.19952564,-0.149201 -0.0360784,-0.05402 -0.0662123,-2.48167 -0.0669643,-5.394776 -0.001155,-4.472607 0.018475,-5.316398 0.12618381,-5.424107 0.0738524,-0.07385 0.30878384,-0.129202 0.55803571,-0.131472 C 1.898618,32.822767 2.583202,32.679272 3.508976,32.28156 c 1.187628,-0.510202 1.4244808,-0.551308 2.2165965,-0.384681 0.3542489,0.07452 0.6816409,0.135489 0.7275376,0.135489 0.1414534,0 0.088289,-0.480513 -0.074787,-0.67594 C 5.5304977,30.340411 3.9126027,29.906735 2.4729309,30.30959 1.9086691,30.467484 1.7898646,30.473059 1.2295447,30.367933 0.88881211,30.304006 0.51716032,30.275011 0.4036519,30.3035 l -0.20637895,0.0518 0,-5.045964 c 0,-4.89006 0.005173,-5.04461 0.16742819,-5.00218 0.25912596,0.06776 0.77474476,-0.24653 1.79685756,-1.095267 1.0294371,-0.854819 1.3314613,-1.018805 1.8763955,-1.018805 0.7170424,0 1.0739614,0.655656 1.2880169,2.366071 0.1633095,1.304929 0.4216067,2.358063 0.6814809,2.778549 0.095995,0.155323 0.3545787,0.429936 0.5746308,0.610253 0.5603053,0.459128 0.860505,0.932805 1.3275252,2.094667 0.6678495,1.66149 0.6250093,1.631353 2.868022,2.01758 1.640609,0.282499 1.83111,0.340894 2.115041,0.648337 0.523295,0.566626 0.352429,0.807253 -1.098485,1.546973 l -1.069066,0.545042 -1.8553737,1.888229 c -2.6712762,2.718577 -2.9329819,3.016258 -3.8223346,4.347761 -0.8873119,1.328448 -3.0098371,4.959858 -3.6114851,6.178859 -0.3364765,0.681736 -0.4143336,0.780352 -0.61123019,0.774201 -0.12410075,-0.0039 -0.2859056,-0.02999 -0.35956632,-0.05803 z"
       id="path4197"
       inkscape:connector-curvature="0" />
    <path
       style="fill:#ac9d93;fill-opacity:1;stroke-width:0.30000001;stroke-miterlimit:4;stroke-dasharray:none"
       d="m 0.19727295,12.641726 0,-7.1417799 0.33482143,0.2019723 C 0.71624616,5.8130031 1.1813142,6.135436 1.5655788,6.4184358 c 0.4232766,0.3117311 0.9248317,0.5898094 1.272459,0.7054923 0.484678,0.1612905 0.5810016,0.2279441 0.6201912,0.4291575 0.025517,0.1310157 0.1861699,0.6819874 0.3570054,1.2243815 0.1708355,0.5423941 0.31061,1.1144583 0.31061,1.2712539 0,0.156795 -0.1171195,0.657215 -0.2602655,1.112043 -0.1431459,0.454828 -0.2855794,0.95124 -0.3165187,1.103137 -0.080838,0.396873 0.1747543,1.972537 0.4045915,2.49421 0.1580289,0.358687 0.2041335,0.671 0.2401723,1.626935 l 0.044601,1.183036 -0.2893279,0 c -0.4029238,0 -1.2168323,0.456231 -1.9856124,1.113023 -0.711224,0.60762 -1.25381415,0.97203 -1.56531859,1.051287 l -0.20089286,0.05111 0,-7.141781 z"
       id="path4199"
       inkscape:connector-curvature="0" />
    <path
       style="fill:#ac9d93;fill-opacity:1;stroke-width:0.30000001;stroke-miterlimit:4;stroke-dasharray:none"
       d="M 23.263132,5.0755024 C 22.960515,4.9323399 22.398015,4.5970678 22.013132,4.3304532 21.628249,4.0638387 21.236292,3.8180707 21.142116,3.7843021 21.04794,3.7505335 20.302265,3.7703198 19.485061,3.8282717 17.501563,3.968931 17.46191,3.9592796 16.8349,3.1832419 16.218868,2.4207908 15.967538,2.2439691 14.259773,1.3715268 13.523166,0.99521778 12.759773,0.54859573 12.563344,0.37903341 L 12.206202,0.07073827 23.916898,0.06941 35.627594,0.06808171 35.513748,0.55783244 C 35.373422,1.1614955 35.271844,1.2885718 34.821865,1.4233887 c -0.353307,0.1058532 -0.35408,0.1070916 -0.298501,0.4777217 0.08387,0.5593033 -0.01702,0.603504 -1.544627,0.6767044 -0.719537,0.034479 -1.315014,0.066483 -1.323281,0.071121 -0.0083,0.00464 -0.227719,0.1899796 -0.487672,0.4118714 -0.679488,0.58 -0.941338,0.6279576 -2.406281,0.4407078 -0.669551,-0.085582 -1.31349,-0.1311793 -1.430976,-0.1013266 -0.117486,0.029853 -0.575218,0.3617741 -1.017183,0.737603 -1.352874,1.1504308 -1.432546,1.1981571 -2.000003,1.1980772 -0.366873,-5.17e-5 -0.646489,-0.069374 -1.050209,-0.260366 l 0,0 z"
       id="path4201"
       inkscape:connector-curvature="0" />
    <path
       style="fill:#ac9d93;fill-opacity:1;stroke-width:0.30000001;stroke-miterlimit:4;stroke-dasharray:none"
       d="m 35.018702,15.88678 c 0,-0.435912 0.367522,-2.123046 0.540171,-2.479692 0.107352,-0.22176 0.489659,-0.706398 0.84957,-1.076974 l 0.654384,-0.673775 0.250259,0.177881 c 0.137642,0.09783 0.410973,0.222396 0.607401,0.276803 0.625985,0.173383 2.296093,0.117809 3.705357,-0.123298 1.568274,-0.268313 2.16995,-0.277486 3.071785,-0.04684 1.482207,0.379085 2.576426,1.271805 2.071998,1.690443 -0.220361,0.182884 -3.399284,0.776736 -8.179497,1.528005 -1.158432,0.182062 -2.469576,0.507512 -3.091495,0.767367 -0.390855,0.16331 -0.479933,0.155899 -0.479933,-0.03992 z"
       id="path4203"
       inkscape:connector-curvature="0" />
    <path
       style="fill:#ac9d93;fill-opacity:1;stroke-width:0.30000001;stroke-miterlimit:4;stroke-dasharray:none"
       d="m 26.268702,17.06414 c -0.07366,-0.03066 -0.183094,-0.09457 -0.243185,-0.142028 -0.159764,-0.126164 0.06433,-0.514516 0.479713,-0.831346 0.184987,-0.141097 0.806934,-0.705044 1.382104,-1.253216 0.575171,-0.548172 1.225158,-1.08352 1.444418,-1.189662 0.636251,-0.308003 2.294092,-0.504086 2.294092,-0.271336 0,0.0518 -0.154709,0.323007 -0.343798,0.602679 -0.189089,0.279671 -0.612427,0.99547 -0.940751,1.590664 l -0.596952,1.08217 -0.911928,0.19582 c -0.929275,0.199546 -2.321693,0.316999 -2.563713,0.216255 z"
       id="path4205"
       inkscape:connector-curvature="0" />
    <path
       style="fill:#ac9d93;fill-opacity:1;stroke-width:0.30000001;stroke-miterlimit:4;stroke-dasharray:none"
       d="m 23.478523,11.164845 c -0.344841,-0.05224 -0.313707,-0.282363 0.08929,-0.659949 0.936546,-0.8775001 1.525726,-1.1168103 2.501655,-1.016109 0.906507,0.093538 1.411205,0.094945 2.967095,0.00827 1.074111,-0.059836 1.323582,-0.05007 1.464533,0.057335 0.09344,0.071201 0.142155,0.1743343 0.108255,0.2291848 -0.0339,0.05485 -0.431778,0.278156 -0.884176,0.496235 -0.801459,0.386344 -0.861444,0.400345 -2.340398,0.546254 -0.834821,0.08236 -1.819196,0.206661 -2.1875,0.276223 -0.643483,0.121536 -1.196536,0.141665 -1.71875,0.06256 z"
       id="path4207"
       inkscape:connector-curvature="0" />
    <path
       style="fill:#ac9d93;fill-opacity:1;stroke-width:0.30000001;stroke-miterlimit:4;stroke-dasharray:none"
       d="m 0.19727295,31.59876 0,-0.79075 0.64732143,-0.07979 c 1.10839952,-0.136616 3.30763192,-0.08343 3.76448092,0.09105 0.6384878,0.243841 0.6769611,0.375693 0.143036,0.490199 -0.249314,0.05347 -0.8839572,0.274479 -1.4103183,0.491136 -1.0572189,0.435164 -1.7309083,0.588905 -2.58056108,0.588905 l -0.56395897,0 0,-0.79075 z"
       id="path4209"
       inkscape:connector-curvature="0" />
    <path
       style="fill:#ac9d93;fill-opacity:1;stroke-width:0.30000001;stroke-miterlimit:4;stroke-dasharray:none"
       d="M 22.231979,21.471835 C 21.865816,21.105672 21.71513,20.606354 21.71513,19.759183 l 0,-0.586967 0.424107,0.21253 c 0.233259,0.116891 0.584822,0.262651 0.78125,0.323911 0.518651,0.161752 1.095413,0.512749 1.263107,0.768683 0.138574,0.21149 0.135261,0.233617 -0.06763,0.451762 -0.341966,0.367679 -0.95294,0.754213 -1.274672,0.806423 -0.253169,0.04108 -0.343737,0.0019 -0.609316,-0.26369 l 0,0 z"
       id="path4211"
       inkscape:connector-curvature="0" />
    <path
       style="fill:#ac9d93;fill-opacity:1;stroke-width:0.30000001;stroke-miterlimit:4;stroke-dasharray:none"
       d="m 26.623029,27.48406 c -0.658473,-0.200059 -0.769116,-0.490343 -0.406089,-1.065416 0.199023,-0.315273 0.909349,-0.999015 1.027654,-0.989195 0.09737,0.0081 0.801229,0.943693 0.894505,1.189026 0.252267,0.663514 0.01808,0.953247 -0.761356,0.941932 -0.290776,-0.0042 -0.630397,-0.03858 -0.754714,-0.07635 l 0,0 z"
       id="path4213"
       inkscape:connector-curvature="0" />
    <path
       style="fill:#ac9d93;fill-opacity:1;stroke-width:0.30000001;stroke-miterlimit:4;stroke-dasharray:none"
       d="M 46.830468,34.847104 C 45.844233,34.627003 45.594281,34.50581 44.62695,33.778699 l -0.635034,-0.477335 -1.621075,-0.08302 c -1.299703,-0.06656 -1.668729,-0.114243 -1.861456,-0.240522 -0.13221,-0.08663 -0.464159,-0.508215 -0.737664,-0.936861 l -0.497283,-0.779357 -1.289463,-0.09696 C 36.786289,31.074511 36.650631,31.04548 36.058,30.752273 35.707368,30.578796 35.245225,30.286632 35.031015,30.103018 34.657934,29.783226 34.643759,29.753002 34.694219,29.38486 c 0.111446,-0.813093 1.448762,-3.103042 2.392136,-4.09617 0.668114,-0.70335 1.226946,-1.043387 2.351989,-1.431132 0.809723,-0.27907 0.95698,-0.377551 2.331553,-1.559263 0.545747,-0.469175 1.248872,-0.99033 1.5625,-1.158122 0.502732,-0.268962 0.665356,-0.309108 1.373805,-0.339143 0.588977,-0.02497 1.02897,0.01568 1.647605,0.152206 0.464219,0.102451 0.996585,0.186274 1.183036,0.186274 l 0.339002,0 0,6.964286 c 0,3.830357 -0.03013,6.960333 -0.06696,6.955502 -0.03683,-0.0048 -0.477116,-0.100318 -0.978412,-0.212194 z"
       id="path4215"
       inkscape:connector-curvature="0" />
    <path
       style="fill:#ac9d93;fill-opacity:1;stroke-width:0.30000001;stroke-miterlimit:4;stroke-dasharray:none"
       d="m 0.21758021,46.230876 0.0243356,-1.605064 2.00892859,-0.03968 c 1.409862,-0.02785 2.1953048,-0.08279 2.6339286,-0.18425 1.4067637,-0.325393 1.5784602,-0.337773 3.7053571,-0.267168 3.3026369,0.109634 3.4811469,0.101468 4.6428569,-0.212401 0.564732,-0.152578 1.574303,-0.474388 2.24349,-0.715132 1.993788,-0.717277 3.159092,-0.908224 5.522025,-0.90484 1.234275,0.0018 1.723755,0.04578 2.993414,0.269179 4.295981,0.755877 5.149871,0.7787 8.080357,0.215968 2.223992,-0.427066 3.644506,-0.490462 5.123172,-0.22864 1.835008,0.324917 4.339591,0.224494 7.765319,-0.311355 1.455418,-0.227655 2.484172,-0.425784 2.758831,-0.531328 0.146956,-0.05647 0.15625,0.123747 0.15625,3.029867 l 0,3.08991 -23.841301,0 -23.84129939,0 0.0243356,-1.605063 z"
       id="path4217"
       inkscape:connector-curvature="0" />
    <path
       style="fill:#80b3ff;fill-opacity:1;stroke-width:0.30000001;stroke-miterlimit:4;stroke-dasharray:none"
       d="M 1.7966057,43.9426 C 1.6946574,43.81976 1.7436288,43.669727 2.1390407,42.893493 2.7787658,41.637646 4.746961,38.35722 5.6007809,37.123749 6.6364131,35.627623 6.9928743,35.221113 9.0925546,33.141713 10.929869,31.322145 11.02717,31.241039 12.038189,30.686356 c 0.575056,-0.315497 1.179582,-0.698911 1.343392,-0.852031 0.261597,-0.244527 0.297835,-0.333316 0.297835,-0.729757 0,-0.851975 -0.589989,-1.22607 -2.344526,-1.486593 -0.515526,-0.07655 -0.981265,-0.139179 -1.034974,-0.139179 -0.179221,0 -0.3637674,-0.923407 -0.4639465,-2.321429 C 9.7088241,23.383025 9.6661723,23.23059 9.1533637,22.717782 8.6911436,22.255561 8.1458846,22.036314 7.4355318,22.027045 6.8810645,22.019813 6.1899225,21.900017 6.0824205,21.792515 6.033874,21.743968 5.9323918,21.125174 5.8569044,20.417416 5.7668312,19.572902 5.6627589,19.018757 5.5541294,18.805251 l -0.1655252,-0.325331 0.507013,-0.05906 c 0.9807571,-0.114244 1.6594176,-0.399237 3.2583869,-1.368313 l 0.9656599,-0.58525 2.427197,-0.08139 2.427198,-0.08139 0.290318,-0.328043 c 0.430167,-0.486065 0.647182,-0.989008 0.647182,-1.499881 0,-0.52513 -0.0231,-0.558583 -0.892857,-1.293091 -0.368304,-0.31103 -1.1586,-1.0352 -1.756213,-1.609267 C 12.001775,10.363203 11.461607,10.053217 10.278511,9.8618304 9.3391393,9.7098704 8.9077132,9.4902346 8.3685658,8.8894916 8.1349931,8.6292341 7.7662183,8.2895738 7.5490663,8.1346911 7.1418148,7.844221 5.9404522,7.3712935 4.728523,7.0243582 l -0.6919643,-0.1980866 0,-0.9265543 C 4.0365587,4.732584 3.8450155,4.1229867 3.1799871,3.1736277 2.9144943,2.7946244 2.697273,2.4631512 2.697273,2.4370206 c 0,-0.1200901 0.3645909,-0.0095 1.5858687,0.4810493 0.7237543,0.2907078 2.4810956,0.93132 3.9052027,1.4235828 3.0454866,1.0527157 4.1268136,1.4833099 4.7850846,1.9054653 0.872001,0.5592213 1.886088,1.433179 3.345796,2.8834637 1.116334,1.1091283 1.583257,1.6477823 2.088111,2.4088963 0.728836,1.098786 1.731125,3.095519 2.129778,4.242889 0.322077,0.926973 0.5895,2.097569 0.520355,2.277759 -0.03205,0.08353 -0.169982,0.132956 -0.371018,0.132956 -0.452449,0 -1.504899,0.252 -1.996917,0.478143 -0.229155,0.105325 -0.837453,0.417848 -1.351774,0.694496 -0.971806,0.522724 -1.887001,0.884212 -3.256558,1.286288 -0.722,0.211967 -0.849976,0.283528 -1.260713,0.704968 -0.632706,0.649196 -1.013172,1.757897 -1.015399,2.958934 -0.001,0.543464 0.413531,0.853991 1.708142,1.279556 0.510453,0.167797 0.656668,0.268342 1.053184,0.724225 0.692473,0.796154 0.847333,0.8214 2.492882,0.40639 0.729525,-0.183987 1.422068,-0.320921 1.538985,-0.304297 0.145946,0.02075 0.388707,0.266965 0.774511,0.785526 0.309064,0.415416 0.610963,0.786453 0.670885,0.824526 0.33923,0.215539 2.074917,-0.0046 3.271911,-0.415025 0.746662,-0.256 1.345969,-0.300943 1.345969,-0.100936 0,0.239209 -0.908161,2.77644 -1.233105,3.445063 -0.658993,1.35598 -2.344595,2.694018 -4.063735,3.225807 -0.964086,0.298225 -1.288312,0.227748 -2.584167,-0.561718 -1.835802,-1.118415 -2.057292,-1.156177 -3.647616,-0.621899 -0.566052,0.190169 -1.570622,0.472983 -2.232376,0.628476 -0.661754,0.155493 -1.3271641,0.358108 -1.4786897,0.450256 -0.340218,0.206899 -0.7087604,0.933889 -0.8402909,1.657564 -0.2046059,1.125733 -0.2351301,1.184035 -1.0961111,2.093641 -1.0513946,1.110772 -1.2315085,1.595347 -0.862115,2.319418 0.3402946,0.667033 0.8874411,0.926294 2.3186716,1.098684 l 0.932252,0.11229 -1.1802008,0.525064 C 8.0449657,42.177307 7.1031309,42.676043 6.6011099,42.996823 5.4564127,43.72826 5.0867486,43.870061 4.012344,43.989864 2.7270446,44.133184 1.9408582,44.116413 1.7966057,43.9426 l 0,0 z M 20.688344,31.133223 c 1.172442,-0.214478 1.257124,-0.944275 0.225716,-1.945222 -0.518025,-0.502726 -0.920854,-0.670743 -1.69893,-0.708614 -1.224387,-0.05959 -3.356375,0.57754 -3.703053,1.106638 -0.155185,0.236843 -0.178339,0.682977 -0.04808,0.926375 0.120092,0.224394 0.665461,0.549948 1.157429,0.690916 0.476267,0.136469 3.193765,0.08963 4.066914,-0.07009 l 0,0 z"
       id="path4219"
       inkscape:connector-curvature="0" />
    <path
       style="fill:#80b3ff;fill-opacity:1;stroke-width:0.30000001;stroke-miterlimit:4;stroke-dasharray:none"
       d="m 33.322273,11.791979 c 0,-0.104806 1.39864,-1.9521392 2.058452,-2.7188171 0.653278,-0.7590854 2.483006,-2.5290989 2.547624,-2.4644807 0.02708,0.027081 -0.03787,0.2199842 -0.144334,0.428673 -0.317543,0.6224352 -0.434024,1.0297199 -0.672763,2.352368 -0.12758,0.7068098 -0.284726,1.3169598 -0.358398,1.3915508 -0.07216,0.07306 -0.562176,0.217791 -1.088925,0.321627 -0.79862,0.157429 -1.37015,0.342173 -2.230049,0.720852 -0.06138,0.02703 -0.111607,0.01273 -0.111607,-0.03177 z"
       id="path4221"
       inkscape:connector-curvature="0" />
    <path
       style="fill:#80b3ff;fill-opacity:1;stroke-width:0.30000001;stroke-miterlimit:4;stroke-dasharray:none"
       d="m 30.726824,20.281187 c -0.217592,-0.223817 -0.666828,-0.609923 -0.998301,-0.858013 -0.331473,-0.248091 -0.602679,-0.473346 -0.602679,-0.500568 0,-0.02722 0.165015,-0.327254 0.366699,-0.666739 0.750096,-1.262598 1.383022,-1.623429 2.847587,-1.623406 0.497891,8e-6 0.957197,0.04768 1.112086,0.115436 l 0.263872,0.115422 -0.3978,0.22509 c -0.772309,0.437 -1.070943,0.843334 -1.344003,1.828706 -0.185446,0.669203 -0.571956,1.53873 -0.749456,1.686042 -0.07013,0.0582 -0.227013,-0.04323 -0.498005,-0.32197 l 0,0 z"
       id="path4223"
       inkscape:connector-curvature="0" />
    <path
       style="fill:#0b1728;fill-opacity:1;stroke-width:0.30000001;stroke-miterlimit:4;stroke-dasharray:none"
       d="m 8.3423599,43.54896 c -0.6518985,-0.0345 -1.2073624,-0.08482 -1.2343641,-0.111822 -0.07583,-0.07583 0.8979997,-0.618587 1.9620772,-1.093552 1.233625,-0.550643 1.703904,-0.866651 1.972944,-1.325735 0.119311,-0.203588 0.395422,-1.027668 0.613581,-1.831289 0.421047,-1.550994 0.551211,-1.811099 1.043548,-2.08532 0.274281,-0.152769 0.427111,-0.166386 1.338768,-0.119282 0.816608,0.04219 1.115947,0.0236 1.44948,-0.09005 0.231186,-0.07877 0.458204,-0.129618 0.504483,-0.112991 0.04628,0.01663 -0.0735,0.291394 -0.266174,0.61059 -0.579618,0.960224 -0.430289,1.422319 0.484135,1.49815 0.554177,0.04596 0.831947,-0.07138 1.340874,-0.566424 0.431718,-0.419939 0.59199,-0.796037 0.59199,-1.38918 0,-0.574038 -0.244037,-0.928813 -0.899007,-1.306957 l -0.456428,-0.263517 0.805467,-0.147362 c 1.619304,-0.296256 3.508452,-1.05146 4.458016,-1.782132 1.048945,-0.807145 1.414174,-1.324745 2.674591,-3.790427 0.520233,-1.017701 0.951919,-1.859474 0.959302,-1.870606 0.0074,-0.01113 0.308796,0.06335 0.669809,0.16551 0.472328,0.133666 0.830765,0.175899 1.27826,0.150613 0.560061,-0.03165 0.643535,-0.06141 0.839786,-0.299439 0.327134,-0.396773 0.256181,-1.199998 -0.182863,-2.070107 -0.179028,-0.354801 -0.325505,-0.681911 -0.325505,-0.726913 0,-0.1468 0.70721,-0.369066 1.174304,-0.369066 0.57876,0 0.981121,0.239079 1.290327,0.766699 0.291436,0.497298 0.577979,0.533811 0.837693,0.106745 0.253484,-0.416821 0.299714,-0.927531 0.135638,-1.498444 -0.342682,-1.192387 -0.251062,-2.026252 0.319644,-2.909174 0.19308,-0.298707 0.527914,-1.029713 0.744075,-1.624458 0.216163,-0.594745 0.461309,-1.194098 0.544772,-1.331897 0.176143,-0.290818 1.354221,-1.06514 2.212897,-1.454482 1.183606,-0.536673 1.951295,-0.721775 5.394705,-1.300747 4.25475,-0.715391 5.788329,-1.003547 6.155084,-1.156529 0.489076,-0.204005 0.655147,-0.439597 0.655147,-0.92941 0,-0.406872 -0.02869,-0.464094 -0.393807,-0.785483 -0.733358,-0.645529 -1.997528,-1.147731 -3.132979,-1.244602 -0.617135,-0.05265 -2.093538,0.104835 -3.514039,0.374838 -0.598602,0.113781 -0.736321,0.109466 -1.551864,-0.04863 -0.492233,-0.09542 -0.995549,-0.239393 -1.118482,-0.319941 -0.212109,-0.13898 -0.220703,-0.176702 -0.168423,-0.73922 0.0303,-0.326021 0.144197,-1.0146418 0.253102,-1.5302668 0.166316,-0.7874409 0.310443,-1.1569077 0.900435,-2.3082579 0.386334,-0.7539169 0.680878,-1.426908 0.654544,-1.4955357 -0.147217,-0.3836378 -0.945098,0.1014123 -2.491366,1.5145569 -1.09762,1.0031225 -2.098259,2.1458858 -3.515123,4.0143925 -0.663634,0.875175 -1.324975,1.663211 -1.469646,1.751191 -0.16163,0.09829 -0.614498,0.199333 -1.17466,0.26208 -1.307164,0.146422 -1.660942,0.347395 -3.590192,2.03949 -1.563376,1.371197 -1.607885,1.419798 -1.634385,1.78468 -0.05201,0.716149 0.444487,1.098609 1.424664,1.097443 0.50167,-6.25e-4 1.02488,-0.05943 2.022613,-0.227419 l 0.295035,-0.04968 -0.151341,0.295135 c -0.08324,0.162325 -0.264633,0.460773 -0.403101,0.663219 -0.241529,0.353125 -0.27889,0.372119 -0.919261,0.467363 -0.803564,0.119515 -1.43438,0.389188 -2.152081,0.920013 -0.294643,0.217924 -0.586879,0.427326 -0.649414,0.465338 -0.07171,0.04359 -0.274689,-0.06567 -0.549631,-0.29587 -0.239762,-0.20074 -0.811366,-0.542005 -1.270229,-0.758368 -1.246462,-0.587726 -1.245749,-0.586796 -1.63245,-2.129855 -0.182002,-0.726241 -0.450331,-1.61017 -0.596286,-1.964286 C 20.502871,14.076234 19.351927,11.909162 18.781521,11.051507 18.179858,10.14685 16.743407,8.6344188 15.161541,7.2400479 13.300428,5.5995279 12.663287,5.2644509 8.9919158,3.9953956 7.8133444,3.5880078 6.3267373,3.0550726 5.6883444,2.8110952 3.5845611,2.0070831 2.8360863,1.7661172 2.4399811,1.7653088 l -0.3912205,-7.985e-4 0.045523,0.339398 C 2.119321,2.2905773 2.3539988,2.8229433 2.6157897,3.286944 3.3146111,4.5255422 3.4962467,5.0171433 3.4987252,5.67663 3.5010822,6.3038308 3.395259,6.5859389 3.157629,6.5859389 2.9382904,6.5859389 2.1278977,6.085077 1.3932608,5.495474 1.0546639,5.2237238 0.64704974,4.935001 0.48745152,4.8538679 l -0.29017857,-0.1475147 0,-2.3191358 0,-2.31913569 5.66987525,0 5.6698758,0 0.329482,0.36469753 c 0.425904,0.47142479 0.827645,0.74336266 2.1794,1.47523446 1.536217,0.8317429 1.783145,1.0155121 2.468998,1.8374809 l 0.602012,0.7214882 1.89636,-0.06097 1.896359,-0.06097 0.648284,0.3932353 c 1.365967,0.8285678 2.153035,1.1333743 2.926586,1.1333743 0.580414,0 0.817836,-0.1303799 1.784197,-0.979785 1.015262,-0.8923889 0.877002,-0.8505722 2.812276,-0.8505722 l 1.703738,0 0.600652,-0.3909395 C 31.974166,3.2671324 32.009245,3.2569927 33.162819,3.1365829 34.815674,2.9640581 34.810728,2.9674371 35.732987,1.380687 l 0.758929,-1.30573952 5.691964,-0.0034329 5.691965,-0.0034329 0,10.27495229 0,10.27495 -0.245536,-0.05103 c -0.589341,-0.122498 -1.932356,-0.229601 -2.887525,-0.230278 -0.970949,-7.14e-4 -1.067426,0.01567 -1.5625,0.264954 -0.290209,0.146126 -0.969618,0.614126 -1.509797,1.04 -1.290008,1.017033 -1.921976,1.421426 -3.210026,2.054079 -1.226527,0.602435 -1.899472,1.193149 -2.714798,2.383065 -0.638567,0.931947 -1.499742,2.651977 -1.621552,3.238736 -0.14674,0.706838 0.04448,0.970249 1.207091,1.662824 0.743569,0.442948 1.266052,0.60029 2.452741,0.738622 0.815124,0.09502 1.05204,0.154713 1.160714,0.29245 0.0751,0.09518 0.357527,0.460272 0.627616,0.811307 0.635825,0.826382 0.869506,0.906088 2.656456,0.906088 l 1.284759,0 0.561226,0.400483 c 0.308675,0.220265 0.822147,0.522581 1.141049,0.671814 0.538778,0.252125 2.147982,0.709957 2.503832,0.712361 0.145532,9.82e-4 0.15625,0.197037 0.15625,2.858199 0,1.571429 -0.02035,2.857143 -0.04523,2.857143 -0.209294,0 -2.033346,0.313419 -3.083928,0.529897 -0.714342,0.147194 -1.658538,0.308836 -2.098215,0.359203 -1.186442,0.135914 -3.505543,0.112339 -4.962018,-0.05044 -1.950217,-0.217963 -3.747226,-0.137183 -6.149894,0.276455 -1.732659,0.298289 -2.028355,0.32592 -3.035715,0.283667 -0.652181,-0.02736 -1.913962,-0.181076 -3.035714,-0.369835 -1.055803,-0.177663 -2.220982,-0.362354 -2.589286,-0.410426 -0.995299,-0.129909 -3.124816,-0.108585 -4.243686,0.04249 -1.571944,0.212256 -1.857998,0.286974 -3.972444,1.037603 -0.663962,0.235706 -1.516062,0.492354 -1.893558,0.570328 -0.730145,0.150815 -2.216654,0.168027 -4.4237961,0.05122 l 0,0 z M 26.009033,11.541612 c 3.335669,-0.408037 3.274368,-0.396199 4.002421,-0.772951 1.194734,-0.618247 1.45359,-1.0764034 0.900222,-1.5933275 l -0.26774,-0.2501062 -2.209939,0.037146 c -4.142728,0.069635 -4.03343,0.050034 -4.997179,0.8961589 -1.266433,1.1118654 -1.358986,1.3141494 -0.730872,1.5973884 0.34021,0.153413 0.851565,0.270929 1.294158,0.297413 0.102718,0.0061 1.006736,-0.08913 2.008929,-0.211722 l 0,0 z"
       id="path4225"
       inkscape:connector-curvature="0" />
    <path
       style="fill:#0b1728;fill-opacity:1;stroke-width:0.30000001;stroke-miterlimit:4;stroke-dasharray:none"
       d="m 0.38874789,43.788987 c -0.16774465,-0.20212 -0.15073841,-10.585621 0.017613,-10.753973 0.0761173,-0.07612 0.47040472,-0.153739 1.0261274,-0.20201 0.5705899,-0.04956 1.1333135,-0.161949 1.5300763,-0.305586 0.3451609,-0.124957 0.9188601,-0.333419 1.2748869,-0.46325 0.6179764,-0.225357 0.6799124,-0.231428 1.366241,-0.133929 0.9625057,0.136732 0.9328662,0.14252 0.9328662,-0.182143 0,-0.397361 -0.6903809,-1.053512 -1.3948878,-1.325729 C 4.4664771,30.161477 3.2450823,30.093636 2.419766,30.271182 1.9799741,30.365793 1.6735431,30.377177 1.2161821,30.3159 0.87871473,30.270685 0.51140535,30.251126 0.39993901,30.272434 l -0.20266606,0.03874 1.2211e-4,-1.438511 c 6.717e-5,-0.791181 0.0266874,-3.03561 0.059156,-4.987619 0.0565198,-3.397959 0.0662096,-3.549107 0.2275261,-3.549107 0.27082559,0 0.6280391,-0.221553 1.5800474,-0.979987 1.0881138,-0.866865 1.4595304,-1.073585 1.9289238,-1.073585 0.7508028,0 0.9884377,0.457429 1.3337301,2.567324 0.3261772,1.993094 0.4587244,2.343102 1.1579323,3.057676 0.7003835,0.715776 0.9062689,1.045522 1.4439951,2.3127 0.634319,1.494805 0.5991514,1.473842 3.3182671,1.978095 1.141003,0.211596 1.52052,0.371551 1.764295,0.743598 0.112092,0.171075 0.123016,0.262802 0.04799,0.402989 -0.09838,0.183832 -0.853985,0.656627 -1.839946,1.151292 -0.440397,0.220951 -0.895125,0.633269 -2.4560445,2.226984 -2.1915893,2.237635 -2.7223577,2.827761 -3.4173916,3.799573 -0.6148683,0.859721 -2.5573922,4.099844 -3.5708708,5.956198 -0.6888471,1.261738 -0.77872893,1.386302 -1.01799958,1.41081 -0.14817561,0.01518 -0.30851406,-0.02863 -0.36825763,-0.100619 l 0,0 z"
       id="path4227"
       inkscape:connector-curvature="0" />
    <path
       style="fill:#b7c4c8;fill-opacity:1;stroke-width:0.30000001;stroke-miterlimit:4;stroke-dasharray:none"
       d="m 0.19727295,12.657367 c 0,-3.8794638 0.0248624,-7.053571 0.0552498,-7.053571 0.0303874,0 0.38194989,0.2299518 0.78125007,0.5110039 0.3993001,0.2810522 1.0876073,0.6947075 1.5295716,0.9192342 l 0.8035714,0.4082304 0.3275435,1.0673729 c 0.180149,0.5870551 0.3308187,1.2524803 0.3348214,1.4787228 0.004,0.2262428 -0.1179602,0.8482288 -0.2710291,1.3821928 -0.2418401,0.843632 -0.2706935,1.054862 -0.2202019,1.612055 0.031958,0.352667 0.1170824,0.85568 0.1891656,1.117807 0.328219,1.193553 0.3858686,1.521331 0.4332275,2.463202 l 0.050506,1.004465 -0.288088,0.002 c -0.4396488,0.003 -0.9171897,0.259932 -1.9584563,1.053742 -1.04619014,0.797559 -1.48603688,1.086311 -1.65552461,1.086817 -0.0883467,2.64e-4 -0.11160714,-1.469726 -0.11160714,-7.053238 z"
       id="path4229"
       inkscape:connector-curvature="0" />
    <path
       style="fill:#b7c4c8;fill-opacity:1;stroke-width:0.30000001;stroke-miterlimit:4;stroke-dasharray:none"
       d="M 23.545487,5.1280461 C 23.177194,4.9836454 22.850219,4.8000658 21.927167,4.2194431 l -0.792394,-0.498435 -1.701032,0.061161 C 18.202815,3.8264268 17.67886,3.81451 17.53786,3.739049 17.430692,3.6816948 17.010889,3.3043062 16.604963,2.9004077 15.968009,2.2666353 15.695698,2.0752081 14.616916,1.5028656 13.929416,1.1381159 13.14893,0.69620771 12.882503,0.52084734 L 12.39809,0.20201028 13.15036,0.1439076 c 0.413749,-0.0319565 5.627114,-0.0620904 11.585258,-0.06696428 l 10.832986,-0.0088616 -0.05973,0.29017857 c -0.115835,0.56270759 -0.339267,0.89904712 -0.66874,1.00667362 -0.291965,0.095374 -0.314299,0.1297302 -0.339882,0.5228207 -0.035,0.5377956 -0.10558,0.5655734 -1.643318,0.6467542 l -1.186173,0.062621 -0.558247,0.4278732 c -0.307037,0.2353302 -0.699185,0.4543131 -0.871441,0.4866286 -0.172256,0.032315 -0.850388,0.00846 -1.50696,-0.053007 -0.656572,-0.061469 -1.29658,-0.085957 -1.422239,-0.054419 -0.125659,0.031539 -0.568725,0.3354737 -0.984589,0.6754114 -1.370484,1.1202679 -1.453098,1.1678624 -2.01394,1.1602431 -0.274998,-0.00374 -0.620532,-0.054052 -0.767854,-0.1118144 z"
       id="path4231"
       inkscape:connector-curvature="0" />
    <path
       style="fill:#b7c4c8;fill-opacity:1;stroke-width:0.30000001;stroke-miterlimit:4;stroke-dasharray:none"
       d="m 23.348422,10.989583 c -0.06794,-0.17706 0.569593,-0.791749 1.214234,-1.1707187 l 0.411403,-0.241854 2.760305,0 c 2.131657,0 2.768821,0.025467 2.797691,0.1118226 0.02294,0.068611 -0.284668,0.2663125 -0.79602,0.5116091 -0.826063,0.396264 -0.852371,0.402161 -2.986402,0.669427 -2.516347,0.315147 -3.315424,0.343273 -3.401211,0.119714 l 0,0 z"
       id="path4233"
       inkscape:connector-curvature="0" />
    <path
       style="fill:#b7c4c8;fill-opacity:1;stroke-width:0.30000001;stroke-miterlimit:4;stroke-dasharray:none"
       d="m 22.259889,21.388833 c -0.154,-0.157516 -0.315958,-0.428721 -0.359907,-0.602679 -0.0951,-0.376442 -0.215694,-1.521644 -0.16023,-1.521644 0.02136,0 0.453278,0.181256 0.959818,0.40279 0.967645,0.423199 1.51556,0.775793 1.51556,0.975293 0,0.146576 -0.607687,0.705065 -0.972375,0.893652 -0.408606,0.211298 -0.670573,0.172008 -0.982866,-0.147412 l 0,0 z"
       id="path4235"
       inkscape:connector-curvature="0" />
    <path
       style="fill:#b7c4c8;fill-opacity:1;stroke-width:0.30000001;stroke-miterlimit:4;stroke-dasharray:none"
       d="m 26.156687,16.942361 c -0.136286,-0.08516 -0.141481,-0.126861 -0.03995,-0.320644 0.124499,-0.237615 2.448959,-2.371025 2.995282,-2.749097 0.478975,-0.331464 2.058129,-0.672237 2.331691,-0.503167 0.08662,0.05353 -0.58427,1.306613 -1.651956,3.085531 -0.08302,0.13833 -0.30809,0.22003 -0.945473,0.343212 -1.043992,0.201765 -2.474701,0.278452 -2.689597,0.144165 z"
       id="path4237"
       inkscape:connector-curvature="0" />
    <path
       style="fill:#b7c4c8;fill-opacity:1;stroke-width:0.30000001;stroke-miterlimit:4;stroke-dasharray:none"
       d="m 35.10992,15.67076 c 0.003,-0.445296 0.332828,-1.839666 0.531683,-2.247489 0.09765,-0.200265 0.450021,-0.661064 0.783048,-1.023998 l 0.605503,-0.659879 0.400524,0.211143 c 0.58673,0.309307 2.329741,0.347607 4.092857,0.08994 1.528603,-0.223399 2.43052,-0.236073 3.169779,-0.04454 1.511097,0.391499 2.612631,1.36721 1.865566,1.65247 -0.397883,0.151928 -2.104802,0.480115 -5.266012,1.012489 -3.53154,0.59474 -4.390698,0.7669 -5.336666,1.069376 -0.392858,0.125617 -0.74442,0.228907 -0.78125,0.229534 -0.03683,6.27e-4 -0.06609,-0.12944 -0.06503,-0.289039 z"
       id="path4239"
       inkscape:connector-curvature="0" />
    <path
       style="fill:#b7c4c8;fill-opacity:1;stroke-width:0.30000001;stroke-miterlimit:4;stroke-dasharray:none"
       d="m 46.782782,34.795926 c -0.840115,-0.206532 -1.252928,-0.410757 -2.10758,-1.042652 l -0.656001,-0.48502 -1.5315,-0.08931 c -1.099199,-0.0641 -1.618467,-0.131418 -1.839596,-0.238479 -0.211776,-0.102533 -0.470101,-0.3912 -0.826297,-0.923354 l -0.518201,-0.774186 -0.602274,-0.05609 c -1.783687,-0.166115 -2.07025,-0.22066 -2.628421,-0.500291 -0.309726,-0.155166 -0.738404,-0.424447 -0.952616,-0.598401 -0.372091,-0.302162 -0.387518,-0.333667 -0.345583,-0.705716 0.09176,-0.814065 1.471178,-3.12588 2.472083,-4.143042 0.599692,-0.609433 1.106216,-0.913429 2.280834,-1.368869 0.656349,-0.254489 1.050026,-0.522306 2.531955,-1.722475 1.374861,-1.113459 1.587688,-1.218179 2.562387,-1.260809 0.495628,-0.02168 1.175439,0.02095 1.72674,0.108264 0.500107,0.07921 1.0483,0.144016 1.218208,0.144016 l 0.308925,0 0,2.217453 c 0,1.219599 -0.02666,4.333439 -0.05924,6.919643 -0.05308,4.2131 -0.07398,4.701518 -0.200893,4.695726 -0.07791,-0.0036 -0.452722,-0.08294 -0.832925,-0.176406 l 0,0 z"
       id="path4241"
       inkscape:connector-curvature="0" />
    <path
       style="fill:#b7c4c8;fill-opacity:1;stroke-width:0.30000001;stroke-miterlimit:4;stroke-dasharray:none"
       d="m 0.23075509,47.556921 c 0.030692,-0.15346 0.0558036,-0.871217 0.0558036,-1.595015 l 0,-1.315998 2.03125004,-0.04749 c 1.6026734,-0.03747 2.2384738,-0.08936 3.0133928,-0.245926 0.9248825,-0.186862 1.1357047,-0.195496 3.6160715,-0.148081 1.611517,0.03081 2.893863,0.01465 3.303571,-0.04163 0.368304,-0.05059 1.59375,-0.386116 2.723215,-0.745619 2.947355,-0.938128 3.055097,-0.958185 5.401785,-1.005562 1.850527,-0.03736 2.12861,-0.02187 3.526786,0.196442 4.664153,0.728266 5.035034,0.740694 7.901786,0.264769 2.463349,-0.408953 3.784168,-0.472393 5.414468,-0.260061 1.568936,0.20434 4.327452,0.146918 6.371246,-0.132626 1.299788,-0.17778 3.566335,-0.563567 3.9811,-0.677618 0.183907,-0.05057 0.187265,-0.02351 0.245536,1.978725 0.03249,1.116498 0.05908,2.485556 0.05908,3.042352 l 0,1.012357 -23.850447,0 -23.85044648,0 0.0558036,-0.279018 z"
       id="path4243"
       inkscape:connector-curvature="0" />
    <path
       style="fill:#b7c4c8;fill-opacity:1;stroke-width:0.30000001;stroke-miterlimit:4;stroke-dasharray:none"
       d="m 26.380309,27.301203 c -0.198963,-0.121309 -0.290179,-0.244984 -0.290179,-0.393434 0,-0.323598 0.896448,-1.393259 1.167644,-1.393259 0.100472,0 0.807534,1.065944 0.884062,1.332782 0.05243,0.182818 0.0359,0.313508 -0.05631,0.445151 -0.111818,0.159642 -0.222584,0.186305 -0.772785,0.186019 -0.482686,-2.5e-4 -0.714355,-0.04429 -0.932437,-0.177259 z"
       id="path4245"
       inkscape:connector-curvature="0" />
    <path
       style="fill:#6f7c91;fill-opacity:1;stroke-width:0.30000000999999998;stroke-miterlimit:4;stroke-dasharray:none"
       d="m 0.19727295,31.639901 c 0,-0.758622 0.001998,-0.76539 0.24553571,-0.831799 0.13504465,-0.03683 1.04910714,-0.06564 2.03125004,-0.06405 1.332192,0.0022 1.8746834,0.03575 2.1360245,0.132217 0.4497709,0.166021 0.4968693,0.319123 0.1231692,0.400384 -0.1621994,0.03527 -0.7619474,0.238519 -1.3327732,0.451664 -1.1843717,0.442241 -1.5434229,0.530241 -2.51124196,0.61548 l -0.69196429,0.06094 0,-0.764845 z"
       id="path4247"
       inkscape:connector-curvature="0" />
    <path
       style="fill:#6f7c91;fill-opacity:1;stroke-width:0.30000001;stroke-miterlimit:4;stroke-dasharray:none"
       d="M 22.828799,4.6706505 C 22.377387,4.4200334 21.842668,4.0978017 21.640534,3.9545801 21.304574,3.7165354 21.117782,3.69695 19.465006,3.726472 L 17.656994,3.7587668 16.671982,2.8971915 C 16.112084,2.4074576 15.014419,1.6541468 14.128637,1.1517327 L 12.570305,0.26784919 18.804406,0.1906951 c 3.428756,-0.0424347 8.577971,-0.0850506 11.4427,-0.0947018 4.884641,-0.01645629 5.208322,-0.003804 5.204125,0.20342316 -0.0065,0.32225117 -0.263217,0.73034604 -0.650319,1.03389244 -0.186517,0.146257 -0.35698,0.4186827 -0.378807,0.6053902 -0.04912,0.4201149 -0.327796,0.5092518 -1.645357,0.5262723 -0.909736,0.011752 -1.025298,0.045532 -1.743273,0.5095815 L 30.264528,3.4715481 28.724804,3.4077891 27.185082,3.34403 26.005376,4.2366192 C 24.933853,5.0473543 24.771742,5.1290757 24.237609,5.127763 23.799768,5.126687 23.439887,5.0099174 22.828799,4.6706505 z"
       id="path4249"
       inkscape:connector-curvature="0" />
    <path
       style="fill:#6f7c91;fill-opacity:1;stroke-width:0.30000001;stroke-miterlimit:4;stroke-dasharray:none"
       d="M 0.30878521,18.99002 C 0.20941029,18.162635 0.23181198,9.1054608 0.33794924,7.198775 L 0.41603909,5.7959423 1.8681334,6.6709317 c 0.8359148,0.5036978 1.4939408,0.9875742 1.5507103,1.1403079 0.054239,0.1459251 0.209281,0.6878251 0.3445383,1.204222 0.2441641,0.9321918 0.244136,0.9469215 -0.00391,2.0605224 -0.3128493,1.404509 -0.3128354,2.053695 7.17e-5,3.358852 0.1364765,0.569251 0.2851609,1.478929 0.3304101,2.021505 l 0.082271,0.986502 -0.5522654,0.153743 C 3.316209,17.681145 2.5847103,18.100341 1.9944024,18.528132 0.22833002,19.807991 0.40133541,19.760585 0.30878521,18.99002 z"
       id="path4251"
       inkscape:connector-curvature="0" />
    <path
       style="fill:#6f7c91;fill-opacity:1;stroke-width:0.30000001;stroke-miterlimit:4;stroke-dasharray:none"
       d="m 23.460144,10.931556 c 0,-0.167247 0.551338,-0.681541 1.082657,-1.0099137 0.379316,-0.2344305 0.597063,-0.2494003 3.166302,-0.217678 l 2.758974,0.034065 -0.636422,0.3359437 c -0.728124,0.384349 -1.470375,0.541794 -3.782995,0.802442 -1.95244,0.220054 -2.588516,0.233604 -2.588516,0.05514 z"
       id="path4253"
       inkscape:connector-curvature="0" />
    <path
       style="fill:#6f7c91;fill-opacity:1;stroke-width:0.30000001;stroke-miterlimit:4;stroke-dasharray:none"
       d="m 26.332765,16.916703 c -0.121534,-0.03464 -0.22097,-0.103217 -0.22097,-0.152384 0,-0.123504 1.267517,-1.338949 2.355661,-2.258886 0.771723,-0.652428 1.028503,-0.79239 1.759777,-0.959194 0.851196,-0.194159 1.061593,-0.182842 1.061593,0.0571 0,0.174421 -1.523822,2.80729 -1.685991,2.913065 -0.3044,0.198546 -2.874248,0.513128 -3.27007,0.400298 z"
       id="path4255"
       inkscape:connector-curvature="0" />
    <path
       style="fill:#6f7c91;fill-opacity:1;stroke-width:0.30000001;stroke-miterlimit:4;stroke-dasharray:none"
       d="m 35.203167,15.6029 c 0,-0.142549 0.08993,-0.654553 0.199836,-1.137788 0.149163,-0.655819 0.340652,-1.065935 0.75517,-1.617367 0.786268,-1.045968 0.816823,-1.064451 1.374472,-0.831451 0.578663,0.241781 1.997359,0.256167 4.425918,0.04488 0.972271,-0.08459 2.040146,-0.112451 2.373054,-0.06192 0.683386,0.103732 2.078011,0.783413 2.283735,1.112995 0.294551,0.471892 0.03506,0.544697 -5.288135,1.483692 -2.013991,0.355262 -4.192462,0.785477 -4.841046,0.956033 -0.648583,0.170557 -1.202589,0.310103 -1.231123,0.310103 -0.02853,0 -0.05188,-0.116631 -0.05188,-0.259179 z"
       id="path4257"
       inkscape:connector-curvature="0" />
    <path
       style="fill:#6f7c91;fill-opacity:1;stroke-width:0.30000001;stroke-miterlimit:4;stroke-dasharray:none"
       d="m 47.261863,34.837886 c -0.788913,-0.147489 -1.611117,-0.509073 -2.404089,-1.057254 -0.823281,-0.569133 -0.95751,-0.620028 -1.645275,-0.623822 -0.411873,-0.0023 -1.137794,-0.05425 -1.613157,-0.115514 -0.965294,-0.124398 -1.233972,-0.308557 -1.849414,-1.267641 l -0.372894,-0.581104 -1.322836,-0.147823 c -1.451223,-0.16217 -1.888815,-0.308398 -2.693194,-0.899968 -0.682519,-0.501949 -0.6847,-0.730805 -0.01903,-1.997015 1.187695,-2.259183 2.194389,-3.314821 3.936724,-4.128123 0.658491,-0.307376 1.658517,-0.926584 2.301056,-1.424795 2.24504,-1.740755 2.408695,-1.793916 4.764049,-1.547521 l 1.526359,0.159674 -0.08804,6.764714 c -0.04843,3.720593 -0.128471,6.798169 -0.177882,6.839059 -0.04941,0.04089 -0.203479,0.0531 -0.342375,0.02713 z"
       id="path4259"
       inkscape:connector-curvature="0" />
    <path
       style="fill:#6f7c91;fill-opacity:1;stroke-width:0.30000001;stroke-miterlimit:4;stroke-dasharray:none"
       d="m 0.27331893,47.524048 c 0.0418755,-0.156258 0.0769132,-0.866521 0.0778615,-1.578363 l 0.001724,-1.294258 1.60993064,-0.0025 c 0.8854618,-0.0014 2.1781414,-0.08478 2.8726213,-0.1854 0.8191773,-0.118686 2.3361804,-0.184351 4.318935,-0.186948 l 3.0562445,-0.004 1.994518,-0.585819 c 1.096985,-0.322201 2.363856,-0.69826 2.815268,-0.835689 0.651677,-0.198397 1.314957,-0.262081 3.219861,-0.309148 2.109144,-0.05211 2.666188,-0.02039 4.608821,0.262438 3.571379,0.519964 4.152487,0.532905 6.776131,0.1509 2.616361,-0.380944 3.527194,-0.415763 7.050332,-0.269516 2.758205,0.114494 3.968137,0.02884 7.123889,-0.50429 1.001323,-0.169164 1.838621,-0.289538 1.860661,-0.267497 0.02204,0.02204 0.07834,1.357242 0.125108,2.967114 l 0.08503,2.92704 -23.836538,0 -23.83653837,0 0.0761373,-0.284105 z"
       id="path4261"
       inkscape:connector-curvature="0" />
    <path
       style="fill:#6f7c91;fill-opacity:1;stroke-width:0.30000001;stroke-miterlimit:4;stroke-dasharray:none"
       d="m 26.932543,27.373567 c -0.208344,-0.02317 -0.476135,-0.129507 -0.595093,-0.236301 -0.190166,-0.170721 -0.19534,-0.234251 -0.04284,-0.526079 0.09539,-0.18255 0.342626,-0.492709 0.549402,-0.689242 l 0.375956,-0.357332 0.313953,0.420467 c 0.444219,0.59493 0.62761,0.982389 0.554794,1.172144 -0.07043,0.18354 -0.585146,0.279854 -1.156172,0.216343 z"
       id="path4263"
       inkscape:connector-curvature="0" />
    <path
       style="fill:#6f7c91;fill-opacity:1;stroke-width:0.30000001;stroke-miterlimit:4;stroke-dasharray:none"
       d="m 22.21489,21.222002 c -0.238555,-0.303273 -0.507374,-1.62908 -0.360159,-1.776295 0.103644,-0.103643 1.898333,0.764743 2.108089,1.020031 0.170601,0.207633 0.143837,0.264909 -0.305143,0.653022 -0.60506,0.523034 -1.085535,0.557415 -1.442787,0.103242 z"
       id="path4265"
       inkscape:connector-curvature="0"
       inkscape:export-filename="/home/sylvie/dcc/DESSINS PEINTURES DIVERS/Logos/Logo-open-tweet-bar/export-48px3.png"
       inkscape:export-xdpi="2055.6799"
       inkscape:export-ydpi="2055.6799" />
  </g>
</svg>
